<svg xmlns="http://www.w3.org/2000/svg" viewBox="0 0 5264.352000000001 601.408" width="5264.352000000001" height="601.408" style="--bg:#0A0A0A;--fg:#EDEDED;--line:#EDEDED;--accent:#EDEDED;--muted:#888888;--surface:#0A0A0A;--border:#454545;background:var(--bg)">
<style>
  @import url('https://fonts.googleapis.com/css2?family=Geist:wght@400;500;600;700&amp;display=swap');
  text { font-family: 'Geist', system-ui, sans-serif; }
  svg {
    /* Derived from --bg and --fg (overridable via --line, --accent, etc.) */
    --_text:          var(--fg);
    --_text-sec:      var(--muted, color-mix(in srgb, var(--fg) 60%, var(--bg)));
    --_text-muted:    var(--muted, color-mix(in srgb, var(--fg) 40%, var(--bg)));
    --_text-faint:    color-mix(in srgb, var(--fg) 25%, var(--bg));
    --_line:          var(--line, color-mix(in srgb, var(--fg) 30%, var(--bg)));
    --_arrow:         var(--accent, color-mix(in srgb, var(--fg) 50%, var(--bg)));
    --_node-fill:     var(--surface, color-mix(in srgb, var(--fg) 3%, var(--bg)));
    --_node-stroke:   var(--border, color-mix(in srgb, var(--fg) 20%, var(--bg)));
    --_group-fill:    var(--bg);
    --_group-hdr:     color-mix(in srgb, var(--fg) 5%, var(--bg));
    --_inner-stroke:  color-mix(in srgb, var(--fg) 12%, var(--bg));
    --_key-badge:     color-mix(in srgb, var(--fg) 10%, var(--bg));
  }
</style>
<defs>
  <marker id="arrowhead" markerWidth="7" markerHeight="7" refX="0" refY="3.5" orient="auto" markerUnits="userSpaceOnUse" overflow="visible">
    <polygon points="0 0, 7 3.5, 0 7" fill="var(--_arrow)" />
  </marker>
  <marker id="arrowhead-start" markerWidth="7" markerHeight="7" refX="7" refY="3.5" orient="auto-start-reverse" markerUnits="userSpaceOnUse" overflow="visible">
    <polygon points="7 0, 0 3.5, 7 7" fill="var(--_arrow)" />
  </marker>
  <pattern id="diag-hatch" width="6" height="6" patternUnits="userSpaceOnUse" patternTransform="rotate(45)">
    <rect width="6" height="6" fill="var(--bg)" />
    <line x1="0" y1="0" x2="0" y2="6" stroke="#171717" stroke-width="3" />
  </pattern>
</defs>
<polyline points="327.68,354.304 368.67999999999995,354.304" fill="none" stroke="var(--_line)" stroke-width="1.5" marker-end="url(#arrowhead)" />
<path d="M588.7434740987579,323.63947409875794 L632.875737049379,323.63947409875794 Q640.875737049379,323.63947409875794 640.875737049379,315.63947409875794 L640.875737049379,308.704 Q640.875737049379,300.704 648.875737049379,300.704 L684.008,300.704" fill="none" stroke="var(--_line)" stroke-width="1.5" marker-end="url(#arrowhead)" />
<polyline points="990.608,300.704 1031.608,300.704" fill="none" stroke="var(--_line)" stroke-width="1.5" marker-end="url(#arrowhead)" />
<path d="M588.7434740987579,384.96852590124206 L680.299737049379,384.96852590124206 Q688.299737049379,384.96852590124206 688.299737049379,392.96852590124206 L688.299737049379,399.904 Q688.299737049379,407.904 696.299737049379,407.904 L778.856,407.904" fill="none" stroke="var(--_line)" stroke-width="1.5" marker-end="url(#arrowhead)" />
<polyline points="1338.2079999999999,300.704 1379.208,300.704" fill="none" stroke="var(--_line)" stroke-width="1.5" marker-end="url(#arrowhead)" />
<path d="M1778.184279779218,352.1357202207819 L1868.816,352.1357202207819 Q1876.816,352.1357202207819 1876.816,360.1357202207819 L1876.816,374.104 Q1876.816,382.104 1884.816,382.104 L4776.208,382.104 Q4777.808,382.104 4777.808,380.504 L4777.808,378.904" fill="none" stroke="var(--_line)" stroke-width="1.5" marker-end="url(#arrowhead)" />
<path d="M1803.599868503543,274.6878685035429 L1858.9159999999997,274.6878685035429 Q1863.8079342517713,274.6878685035429 1863.8079342517713,269.7959342517714 L1863.8079342517713,269.7959342517714 Q1863.8079342517713,264.904 1868.6998685035428,264.904 L1915.0159999999998,264.904" fill="none" stroke="var(--_line)" stroke-width="1.5" marker-end="url(#arrowhead)" />
<path d="M2321.4559999999997,264.904 L3487.2,264.904 Q3495.2,264.904 3495.2,272.904 L3495.2,328.304 Q3495.2,336.304 3503.2,336.304 L4659.944,336.304" fill="none" stroke="var(--_line)" stroke-width="1.5" marker-end="url(#arrowhead)" />
<path d="M2321.4559999999997,264.904 L2358.0559999999996,264.904 Q2366.0559999999996,264.904 2366.0559999999996,256.904 L2366.0559999999996,223.10399999999998 Q2366.0559999999996,215.10399999999998 2374.0559999999996,215.10399999999998 L2401.656,215.10399999999998" fill="none" stroke="var(--_line)" stroke-width="1.5" marker-end="url(#arrowhead)" />
<polyline points="2818.08,215.10399999999998 2859.08,215.10399999999998" fill="none" stroke="var(--_line)" stroke-width="1.5" marker-end="url(#arrowhead)" />
<polyline points="3255.536,215.10399999999998 3351.3360000000002,215.10399999999998" fill="none" stroke="var(--_line)" stroke-width="1.5" marker-end="url(#arrowhead)" />
<polyline points="3627.9840000000004,215.10399999999998 3754.9840000000004,215.10399999999998" fill="none" stroke="var(--_line)" stroke-width="1.5" marker-end="url(#arrowhead)" />
<path d="M4091.536,215.10399999999998 L4138.536,215.10399999999998 Q4146.536,215.10399999999998 4146.536,207.10399999999998 L4146.536,191.50400000000002 Q4146.536,183.50400000000002 4154.536,183.50400000000002 L4406.94,183.50400000000002 Q4410.24,183.50400000000002 4410.24,186.80400000000003 L4410.24,190.104" fill="none" stroke="var(--_line)" stroke-width="1.5" marker-end="url(#arrowhead)" />
<path d="M4201.536,165.50400000000002 L4154.536,165.50400000000002 Q4146.536,165.50400000000002 4146.536,157.50400000000002 L4146.536,155.50400000000002 Q4146.536,147.50400000000002 4138.536,147.50400000000002 L3935.76,147.50400000000002 Q3927.76,147.50400000000002 3927.76,155.50400000000002 L3927.76,172.504" fill="none" stroke="var(--_line)" stroke-width="1.5" marker-end="url(#arrowhead)" />
<path d="M4091.536,215.10399999999998 L4146.023999999999,215.10399999999998 Q4154.023999999999,215.10399999999998 4154.023999999999,223.10399999999998 L4154.023999999999,264.704 Q4154.023999999999,272.704 4162.023999999999,272.704 L4207.512,272.704" fill="none" stroke="var(--_line)" stroke-width="1.5" marker-end="url(#arrowhead)" />
<path d="M4603.968,272.704 L4769.808,272.704 Q4777.808,272.704 4777.808,280.704 L4777.808,293.70399999999995" fill="none" stroke="var(--_line)" stroke-width="1.5" marker-end="url(#arrowhead)" />
<polyline points="4886.672,336.304 4927.6720000000005,336.304" fill="none" stroke="var(--_line)" stroke-width="1.5" marker-end="url(#arrowhead)" />
<rect x="640.4079999999999" y="287.704" width="31.6" height="26" rx="4" ry="4" fill="var(--bg)" stroke="var(--_inner-stroke)" stroke-width="0.5" />
<text x="656.2079999999999" y="300.704" text-anchor="middle" dy="0.35em" font-size="10" font-weight="400" fill="var(--_text-muted)">new</text>
<rect x="640.4079999999999" y="394.904" width="31.6" height="26" rx="4" ry="4" fill="var(--bg)" stroke="var(--_inner-stroke)" stroke-width="0.5" />
<text x="656.2079999999999" y="407.904" text-anchor="middle" dy="0.35em" font-size="10" font-weight="400" fill="var(--_text-muted)">dup</text>
<rect x="3276.536" y="369.104" width="62.800000000000004" height="26" rx="4" ry="4" fill="var(--bg)" stroke="var(--_inner-stroke)" stroke-width="0.5" />
<text x="3307.936" y="382.104" text-anchor="middle" dy="0.35em" font-size="10" font-weight="400" fill="var(--_text-muted)">slash cmd</text>
<rect x="1850.616" y="251.904" width="52.4" height="26" rx="4" ry="4" fill="var(--bg)" stroke="var(--_inner-stroke)" stroke-width="0.5" />
<text x="1876.816" y="264.904" text-anchor="middle" dy="0.35em" font-size="10" font-weight="400" fill="var(--_text-muted)">message</text>
<rect x="3452.36" y="323.304" width="83.60000000000001" height="26" rx="4" ry="4" fill="var(--bg)" stroke="var(--_inner-stroke)" stroke-width="0.5" />
<text x="3494.1600000000003" y="336.304" text-anchor="middle" dy="0.35em" font-size="10" font-weight="400" fill="var(--_text-muted)">approval text</text>
<rect x="2342.456" y="202.10399999999998" width="47.2" height="26" rx="4" ry="4" fill="var(--bg)" stroke="var(--_inner-stroke)" stroke-width="0.5" />
<text x="2366.056" y="215.10399999999998" text-anchor="middle" dy="0.35em" font-size="10" font-weight="400" fill="var(--_text-muted)">normal</text>
<rect x="3648.9840000000004" y="202.10399999999998" width="94" height="26" rx="4" ry="4" fill="var(--bg)" stroke="var(--_inner-stroke)" stroke-width="0.5" />
<text x="3695.9840000000004" y="215.10399999999998" text-anchor="middle" dy="0.35em" font-size="10" font-weight="400" fill="var(--_text-muted)">once/agent/task</text>
<rect x="4112.536" y="170.50400000000002" width="68" height="26" rx="4" ry="4" fill="var(--bg)" stroke="var(--_inner-stroke)" stroke-width="0.5" />
<text x="4146.536" y="183.50400000000002" text-anchor="middle" dy="0.35em" font-size="10" font-weight="400" fill="var(--_text-muted)">tool_calls</text>
<rect x="4122.936" y="134.50400000000002" width="47.2" height="26" rx="4" ry="4" fill="var(--bg)" stroke="var(--_inner-stroke)" stroke-width="0.5" />
<text x="4146.536" y="147.50400000000002" text-anchor="middle" dy="0.35em" font-size="10" font-weight="400" fill="var(--_text-muted)">result</text>
<rect x="4125.536" y="259.704" width="42" height="26" rx="4" ry="4" fill="var(--bg)" stroke="var(--_inner-stroke)" stroke-width="0.5" />
<text x="4146.536" y="272.704" text-anchor="middle" dy="0.35em" font-size="10" font-weight="400" fill="var(--_text-muted)">final</text>
<rect x="80" y="320.70399999999995" width="247.68" height="67.2" rx="6" ry="6" fill="var(--_node-fill)" stroke="var(--_node-stroke)" stroke-width="0.75" />
<polygon points="498.544,233.44 619.408,354.304 498.544,475.16799999999995 377.68,354.304" fill="var(--_node-fill)" stroke="var(--_node-stroke)" stroke-width="0.75" />
<rect x="693.008" y="267.104" width="297.6" height="67.2" rx="6" ry="6" fill="var(--_node-fill)" stroke="var(--_node-stroke)" stroke-width="0.75" />
<rect x="1040.608" y="267.104" width="297.6" height="67.2" rx="6" ry="6" fill="var(--_node-fill)" stroke="var(--_node-stroke)" stroke-width="0.75" />
<polygon points="1608.912,80 1829.616,300.704 1608.912,521.408 1388.208,300.704" fill="var(--_node-fill)" stroke="var(--_node-stroke)" stroke-width="0.75" />
<rect x="1924.0159999999998" y="231.304" width="397.44" height="67.2" rx="6" ry="6" fill="var(--_node-fill)" stroke="var(--_node-stroke)" stroke-width="0.75" />
<rect x="2410.656" y="181.504" width="407.424" height="67.2" rx="6" ry="6" fill="var(--_node-fill)" stroke="var(--_node-stroke)" stroke-width="0.75" />
<rect x="2868.08" y="181.504" width="387.45599999999996" height="67.2" rx="6" ry="6" fill="var(--_node-fill)" stroke="var(--_node-stroke)" stroke-width="0.75" />
<rect x="3360.3360000000002" y="181.504" width="267.648" height="67.2" rx="6" ry="6" fill="var(--_node-fill)" stroke="var(--_node-stroke)" stroke-width="0.75" />
<rect x="3763.9840000000004" y="181.504" width="327.552" height="67.2" rx="6" ry="6" fill="var(--_node-fill)" stroke="var(--_node-stroke)" stroke-width="0.75" />
<rect x="4201.536" y="131.90400000000002" width="417.408" height="67.2" rx="6" ry="6" fill="var(--_node-fill)" stroke="var(--_node-stroke)" stroke-width="0.75" />
<rect x="4216.512" y="239.104" width="387.45599999999996" height="67.2" rx="6" ry="6" fill="var(--_node-fill)" stroke="var(--_node-stroke)" stroke-width="0.75" />
<rect x="4668.944" y="302.70399999999995" width="217.72799999999998" height="67.2" rx="6" ry="6" fill="var(--_node-fill)" stroke="var(--_node-stroke)" stroke-width="0.75" />
<rect x="4936.6720000000005" y="302.70399999999995" width="247.68" height="67.2" rx="6" ry="6" fill="var(--_node-fill)" stroke="var(--_node-stroke)" stroke-width="0.75" />
<rect x="787.856" y="374.304" width="107.904" height="67.2" rx="6" ry="6" fill="#444" stroke="#666" stroke-width="0.75" />
<text x="203.84" y="354.304" text-anchor="middle" dy="0.35em" font-size="19.2" font-weight="400" letter-spacing="-0.384" fill="var(--_text)">&quot;Channel&lt;br/&gt;read()&quot;</text>
<text x="498.544" y="354.304" text-anchor="middle" dy="0.35em" font-size="19.2" font-weight="400" letter-spacing="-0.384" fill="var(--_text)">&quot;Dedup&lt;br/&gt;seen?&quot;</text>
<text x="841.808" y="300.704" text-anchor="middle" dy="0.35em" font-size="19.2" font-weight="400" letter-spacing="-0.384" fill="var(--_text)">&quot;Bus&lt;br/&gt;publish_inbound&quot;</text>
<text x="1189.408" y="300.704" text-anchor="middle" dy="0.35em" font-size="19.2" font-weight="400" letter-spacing="-0.384" fill="var(--_text)">&quot;Bus&lt;br/&gt;consume_inbound&quot;</text>
<text x="1608.912" y="300.704" text-anchor="middle" dy="0.35em" font-size="19.2" font-weight="400" letter-spacing="-0.384" fill="var(--_text)">&quot;CommandRouter&lt;br/&gt;16 slash commands&quot;</text>
<text x="2122.736" y="264.904" text-anchor="middle" dy="0.35em" font-size="19.2" font-weight="400" letter-spacing="-0.384" fill="var(--_text)">&quot;ApprovalService&lt;br/&gt;pending check&quot;</text>
<text x="2614.368" y="215.10399999999998" text-anchor="middle" dy="0.35em" font-size="19.2" font-weight="400" letter-spacing="-0.384" fill="var(--_text)">&quot;Sensitive Seal&lt;br/&gt;inbound-seal.ts&quot;</text>
<text x="3061.808" y="215.10399999999998" text-anchor="middle" dy="0.35em" font-size="19.2" font-weight="400" letter-spacing="-0.384" fill="var(--_text)">&quot;MediaCollector&lt;br/&gt;file download&quot;</text>
<text x="3494.1600000000003" y="215.10399999999998" text-anchor="middle" dy="0.35em" font-size="19.2" font-weight="400" letter-spacing="-0.384" fill="var(--_text)">&quot;OrchestrationService&quot;</text>
<text x="3927.76" y="215.10399999999998" text-anchor="middle" dy="0.35em" font-size="19.2" font-weight="400" letter-spacing="-0.384" fill="var(--_text)">&quot;AgentBackend&lt;br/&gt;cli / sdk&quot;</text>
<text x="4410.24" y="165.50400000000002" text-anchor="middle" dy="0.35em" font-size="19.2" font-weight="400" letter-spacing="-0.384" fill="var(--_text)">&quot;Tool Execution&lt;br/&gt;+ secret resolve&quot;</text>
<text x="4410.24" y="272.704" text-anchor="middle" dy="0.35em" font-size="19.2" font-weight="400" letter-spacing="-0.384" fill="var(--_text)">&quot;SessionRecorder&lt;br/&gt;history save&quot;</text>
<text x="4777.808" y="336.304" text-anchor="middle" dy="0.35em" font-size="19.2" font-weight="400" letter-spacing="-0.384" fill="var(--_text)">&quot;DispatchService&quot;</text>
<text x="5060.512000000001" y="336.304" text-anchor="middle" dy="0.35em" font-size="19.2" font-weight="400" letter-spacing="-0.384" fill="var(--_text)">&quot;Channel&lt;br/&gt;send()&quot;</text>
<text x="841.808" y="407.904" text-anchor="middle" dy="0.35em" font-size="19.2" font-weight="400" letter-spacing="-0.384" fill="var(--_text)">&quot;skip&quot;</text>
</svg>