<svg xmlns="http://www.w3.org/2000/svg" viewBox="0 0 2850.408 2400.152" width="2850.408" height="2400.152" style="--bg:#0A0A0A;--fg:#EDEDED;--line:#EDEDED;--accent:#EDEDED;--muted:#888888;--surface:#0A0A0A;--border:#454545;background:var(--bg)">
<style>
  @import url('https://fonts.googleapis.com/css2?family=Geist:wght@400;500;600;700&amp;display=swap');
  text { font-family: 'Geist', system-ui, sans-serif; }
  svg {
    /* Derived from --bg and --fg (overridable via --line, --accent, etc.) */
    --_text:          var(--fg);
    --_text-sec:      var(--muted, color-mix(in srgb, var(--fg) 60%, var(--bg)));
    --_text-muted:    var(--muted, color-mix(in srgb, var(--fg) 40%, var(--bg)));
    --_text-faint:    color-mix(in srgb, var(--fg) 25%, var(--bg));
    --_line:          var(--line, color-mix(in srgb, var(--fg) 30%, var(--bg)));
    --_arrow:         var(--accent, color-mix(in srgb, var(--fg) 50%, var(--bg)));
    --_node-fill:     var(--surface, color-mix(in srgb, var(--fg) 3%, var(--bg)));
    --_node-stroke:   var(--border, color-mix(in srgb, var(--fg) 20%, var(--bg)));
    --_group-fill:    var(--bg);
    --_group-hdr:     color-mix(in srgb, var(--fg) 5%, var(--bg));
    --_inner-stroke:  color-mix(in srgb, var(--fg) 12%, var(--bg));
    --_key-badge:     color-mix(in srgb, var(--fg) 10%, var(--bg));
  }
</style>
<defs>
  <marker id="arrowhead" markerWidth="7" markerHeight="7" refX="0" refY="3.5" orient="auto" markerUnits="userSpaceOnUse" overflow="visible">
    <polygon points="0 0, 7 3.5, 0 7" fill="var(--_arrow)" />
  </marker>
  <marker id="arrowhead-start" markerWidth="7" markerHeight="7" refX="7" refY="3.5" orient="auto-start-reverse" markerUnits="userSpaceOnUse" overflow="visible">
    <polygon points="7 0, 0 3.5, 7 7" fill="var(--_arrow)" />
  </marker>
  <pattern id="diag-hatch" width="6" height="6" patternUnits="userSpaceOnUse" patternTransform="rotate(45)">
    <rect width="6" height="6" fill="var(--bg)" />
    <line x1="0" y1="0" x2="0" y2="6" stroke="#171717" stroke-width="3" />
  </pattern>
</defs>
<rect x="177.87199999999984" y="232.2" width="1465.784" height="371.696" rx="3" ry="3" fill="url(#diag-hatch)" stroke="#454545" stroke-width="1" />
<rect x="64" y="659.896" width="386.2719999999998" height="1427.056" rx="3" ry="3" fill="url(#diag-hatch)" stroke="#454545" stroke-width="1" />
<rect x="438.2719999999998" y="659.8959999999998" width="650.4559999999999" height="1660.256" rx="3" ry="3" fill="url(#diag-hatch)" stroke="#454545" stroke-width="1" />
<rect x="1910.368" y="232.19999999999993" width="876.04" height="1016.5919999999999" rx="3" ry="3" fill="url(#diag-hatch)" stroke="#454545" stroke-width="1" />
<rect x="1076.7279999999996" y="659.8959999999998" width="845.6400000000001" height="1660.256" rx="3" ry="3" fill="url(#diag-hatch)" stroke="#454545" stroke-width="1" />
<polyline points="724.9359999999999,147.2 724.9359999999999,288.2" fill="none" stroke="var(--_line)" stroke-width="1.5" marker-end="url(#arrowhead)" />
<path d="M628.2186806989355,462.1786806989355 L628.2186806989355,585.5373403494677 Q628.2186806989355,593.5373403494677 620.2186806989355,593.5373403494677 L291.30399999999986,593.5373403494677 Q283.30399999999986,593.5373403494677 283.30399999999986,601.5373403494677 L283.30399999999986,715.896" fill="none" stroke="var(--_line)" stroke-width="1.5" marker-end="url(#arrowhead)" />
<path d="M747.4843064111823,536.3476935888177 L747.4843064111823,625.672 Q747.4843064111823,630.6218467944088 752.434153205591,630.6218467944088 L752.434153205591,630.6218467944088 Q757.3839999999998,630.6218467944088 757.3839999999998,635.5716935888177 L757.3839999999998,715.896" fill="none" stroke="var(--_line)" stroke-width="1.5" marker-end="url(#arrowhead)" />
<path d="M819.1117721158411,464.72022788415893 L819.1117721158411,575.896 Q819.1117721158411,583.896 827.1117721158411,583.896 L1117.1599999999999,583.896 Q1125.1599999999999,583.896 1125.1599999999999,591.896 L1125.1599999999999,600.896 Q1125.1599999999999,608.896 1133.1599999999999,608.896 L2062.2239999999997,608.896 Q2070.2239999999997,608.896 2070.2239999999997,616.896 L2070.2239999999997,715.896" fill="none" stroke="var(--_line)" stroke-width="1.5" marker-end="url(#arrowhead)" />
<path d="M835.0939958766902,448.7380041233097 L835.0939958766902,578.8170020616549 Q835.0939958766902,586.8170020616549 843.0939958766902,586.8170020616549 L1546.7039999999997,586.8170020616549 Q1554.7039999999997,586.8170020616549 1554.7039999999997,594.8170020616549 L1554.7039999999997,715.896" fill="none" stroke="var(--_line)" stroke-width="1.5" marker-end="url(#arrowhead)" />
<polyline points="283.30399999999986,792.096 283.30399999999986,963.048" fill="none" stroke="var(--_line)" stroke-width="1.5" marker-end="url(#arrowhead)" />
<path d="M252.98954898017797,1143.525548980178 L252.98954898017797,1248.658774490089 Q252.98954898017797,1256.658774490089 244.98954898017797,1256.658774490089 L224.3679999999999,1256.658774490089 Q216.3679999999999,1256.658774490089 216.3679999999999,1264.658774490089 L216.3679999999999,1360.792" fill="none" stroke="var(--_line)" stroke-width="1.5" marker-end="url(#arrowhead)" />
<polyline points="216.3679999999999,1436.9919999999997 216.3679999999999,1593.992" fill="none" stroke="var(--_line)" stroke-width="1.5" marker-end="url(#arrowhead)" />
<path d="M216.3679999999999,1670.1919999999998 L216.3679999999999,1923.0720000000001 Q216.3679999999999,1931.0720000000001 208.3679999999999,1931.0720000000001 L198.41599999999985,1931.0720000000001" fill="none" stroke="var(--_line)" stroke-width="1.5" marker-end="url(#arrowhead)" />
<path d="M313.61845101982175,1143.525548980178 L313.61845101982175,1220.792 Q313.61845101982175,1228.792 321.61845101982175,1228.792 L342.23999999999984,1228.792 Q350.23999999999984,1228.792 350.23999999999984,1236.792 L350.23999999999984,1923.0720000000001 Q350.23999999999984,1931.0720000000001 358.23999999999984,1931.0720000000001 L368.1919999999999,1931.0720000000001" fill="none" stroke="var(--_line)" stroke-width="1.5" marker-end="url(#arrowhead)" />
<polyline points="757.3839999999998,792.096 757.3839999999998,933.096" fill="none" stroke="var(--_line)" stroke-width="1.5" marker-end="url(#arrowhead)" />
<path d="M693.5915555321722,1139.9995555321723 L693.5915555321722,1510.7357777660864 Q693.5915555321722,1518.7357777660864 685.5915555321722,1518.7357777660864 L617.1199999999999,1518.7357777660864 Q609.1199999999999,1518.7357777660864 609.1199999999999,1526.7357777660864 L609.1199999999999,1888.4720000000002" fill="none" stroke="var(--_line)" stroke-width="1.5" marker-end="url(#arrowhead)" />
<path d="M609.1199999999999,1964.672 L609.1199999999999,2233.552 Q609.1199999999999,2241.552 617.1199999999999,2241.552 L649.5039999999998,2241.552" fill="none" stroke="var(--_line)" stroke-width="1.5" marker-end="url(#arrowhead)" />
<path d="M816.3852769243776,1144.790723075622 L816.3852769243776,1249.291361537811 Q816.3852769243776,1257.291361537811 824.3852769243776,1257.291361537811 L877.3679999999998,1257.291361537811 Q885.3679999999998,1257.291361537811 885.3679999999998,1265.291361537811 L885.3679999999998,1360.792" fill="none" stroke="var(--_line)" stroke-width="1.5" marker-end="url(#arrowhead)" />
<path d="M885.3679999999998,1436.9919999999997 L885.3679999999998,1511.9919999999997 Q885.3679999999998,1519.9919999999997 877.3679999999998,1519.9919999999997 L811.4319999999998,1519.9919999999997 Q803.4319999999998,1519.9919999999997 803.4319999999998,1527.9919999999997 L803.4319999999998,1593.992" fill="none" stroke="var(--_line)" stroke-width="1.5" marker-end="url(#arrowhead)" />
<path d="M803.4319999999998,1670.1919999999998 L803.4319999999998,1863.2442760495098 Q803.4319999999998,1871.2442760495098 811.4319999999998,1871.2442760495098 L840.2917239504901,1871.2442760495098" fill="none" stroke="var(--_line)" stroke-width="1.5" marker-end="url(#arrowhead)" />
<path d="M921.4442760495095,1871.2442760495098 L921.4442760495095,1803.192 Q921.4442760495095,1795.192 929.4442760495095,1795.192 L959.3039999999999,1795.192 Q967.3039999999999,1795.192 967.3039999999999,1787.192 L967.3039999999999,1411.3919999999998 Q967.3039999999999,1403.3919999999998 975.3039999999999,1403.3919999999998 L985.2319999999999,1403.3919999999998" fill="none" stroke="var(--_line)" stroke-width="1.5" marker-end="url(#arrowhead)" />
<path d="M885.3679999999998,2026.976 L885.3679999999998,2233.552 Q885.3679999999998,2241.552 877.3679999999998,2241.552 L865.2639999999998,2241.552" fill="none" stroke="var(--_line)" stroke-width="1.5" marker-end="url(#arrowhead)" />
<path d="M2070.2239999999997,792.096 L2070.2239999999997,1064.944 Q2070.2239999999997,1072.944 2078.2239999999997,1072.944 L2306.6879999999996,1072.944" fill="none" stroke="var(--_line)" stroke-width="1.5" marker-end="url(#arrowhead)" />
<path d="M2409.5759999999996,1039.344 L2409.5759999999996,925.096 Q2409.5759999999996,917.096 2417.5759999999996,917.096 L2690.464,917.096 Q2698.464,917.096 2698.464,909.096 L2698.464,477.9890457504602 Q2698.464,469.9890457504602 2690.464,469.9890457504602 L2560.90695424954,469.9890457504602" fill="none" stroke="var(--_line)" stroke-width="1.5" marker-end="url(#arrowhead)" />
<path d="M2444.6467462713795,470.6547462713797 L2444.6467462713795,589.7753731356898 Q2444.6467462713795,597.7753731356898 2436.6467462713795,597.7753731356898 L2310.9919999999997,597.7753731356898 Q2302.9919999999997,597.7753731356898 2302.9919999999997,605.7753731356898 L2302.9919999999997,715.896" fill="none" stroke="var(--_line)" stroke-width="1.5" marker-end="url(#arrowhead)" />
<path d="M2302.9919999999997,792.096 L2302.9919999999997,1071.096 Q2302.9919999999997,1072.944 2304.8399999999997,1072.944 L2306.6879999999996,1072.944" fill="none" stroke="var(--_line)" stroke-width="1.5" marker-end="url(#arrowhead)" />
<path d="M2467.742131945421,493.7501319454213 L2467.742131945421,575.896 Q2467.742131945421,583.896 2459.742131945421,583.896 L2434.3039999999996,583.896 Q2426.3039999999996,583.896 2426.3039999999996,591.896 L2426.3039999999996,1064.944 Q2426.3039999999996,1072.944 2434.3039999999996,1072.944 L2494.4639999999995,1072.944" fill="none" stroke="var(--_line)" stroke-width="1.5" marker-end="url(#arrowhead)" />
<path d="M2528.145868054579,493.7501319454213 L2528.145868054579,601.3230659727107 Q2528.145868054579,609.3230659727107 2536.145868054579,609.3230659727107 L2561.584,609.3230659727107 Q2569.584,609.3230659727107 2569.584,617.3230659727107 L2569.584,715.896" fill="none" stroke="var(--_line)" stroke-width="1.5" marker-end="url(#arrowhead)" />
<polyline points="1554.7039999999997,792.096 1554.7039999999997,1030.344" fill="none" stroke="var(--_line)" stroke-width="1.5" marker-end="url(#arrowhead)" />
<path d="M1554.7039999999997,1106.5439999999999 L1554.7039999999997,1230.168 Q1554.7039999999997,1238.168 1546.7039999999997,1238.168 L1222.12,1238.168 Q1214.12,1238.168 1214.12,1246.168 L1214.12,1360.792" fill="none" stroke="var(--_line)" stroke-width="1.5" marker-end="url(#arrowhead)" />
<path d="M1554.7039999999997,1106.5439999999999 L1554.7039999999997,1230.168 Q1554.7039999999997,1238.168 1546.7039999999997,1238.168 L1439.9119999999998,1238.168 Q1431.9119999999998,1238.168 1431.9119999999998,1246.168 L1431.9119999999998,1360.792" fill="none" stroke="var(--_line)" stroke-width="1.5" marker-end="url(#arrowhead)" />
<path d="M1554.7039999999997,1106.5439999999999 L1554.7039999999997,1230.168 Q1554.7039999999997,1238.168 1562.7039999999997,1238.168 L1601.7679999999998,1238.168 Q1609.7679999999998,1238.168 1609.7679999999998,1246.168 L1609.7679999999998,1360.792" fill="none" stroke="var(--_line)" stroke-width="1.5" marker-end="url(#arrowhead)" />
<path d="M1214.12,1436.9919999999997 L1214.12,1630.62 Q1214.12,1636.5919999999999 1220.0919999999999,1636.5919999999999 L1226.0639999999999,1636.5919999999999" fill="none" stroke="var(--_line)" stroke-width="1.5" marker-end="url(#arrowhead)" />
<path d="M1431.9119999999998,1436.9919999999997 L1431.9119999999998,1628.5919999999999 Q1431.9119999999998,1636.5919999999999 1439.9119999999998,1636.5919999999999 L1453.7759999999998,1636.5919999999999" fill="none" stroke="var(--_line)" stroke-width="1.5" marker-end="url(#arrowhead)" />
<path d="M1609.7679999999998,1436.9919999999997 L1609.7679999999998,1628.5919999999999 Q1609.7679999999998,1636.5919999999999 1601.7679999999998,1636.5919999999999 L1471.7759999999998,1636.5919999999999" fill="none" stroke="var(--_line)" stroke-width="1.5" marker-end="url(#arrowhead)" />
<polyline points="1348.9199999999998,1670.1919999999998 1348.9199999999998,1811.1920000000002" fill="none" stroke="var(--_line)" stroke-width="1.5" marker-end="url(#arrowhead)" />
<path d="M1295.2848037934282,1988.3168037934286 L1295.2848037934282,2058.952 Q1295.2848037934282,2066.952 1287.2848037934282,2066.952 L1229.6079999999997,2066.952 Q1221.6079999999997,2066.952 1221.6079999999997,2074.952 L1221.6079999999997,2233.552 Q1221.6079999999997,2241.552 1229.6079999999997,2241.552 L1327.944,2241.552" fill="none" stroke="var(--_line)" stroke-width="1.5" marker-end="url(#arrowhead)" />
<path d="M1420.848,2207.952 L1420.848,2190.952 Q1420.848,2182.952 1428.848,2182.952 L1718.2959999999998,2182.952 Q1726.2959999999998,2182.952 1726.2959999999998,2174.952 L1726.2959999999998,1080.944 Q1726.2959999999998,1072.944 1718.2959999999998,1072.944 L1702.5199999999998,1072.944" fill="none" stroke="var(--_line)" stroke-width="1.5" marker-end="url(#arrowhead)" />
<path d="M1432.802038505096,1904.0740385050963 L1432.802038505096,1803.192 Q1432.802038505096,1795.192 1440.802038505096,1795.192 L1763.0959999999998,1795.192 Q1771.0959999999998,1795.192 1771.0959999999998,1787.192 L1771.0959999999998,1080.944 Q1771.0959999999998,1072.944 1763.0959999999998,1072.944 L1702.5199999999998,1072.944" fill="none" stroke="var(--_line)" stroke-width="1.5" marker-end="url(#arrowhead)" />
<path d="M1416.897368840695,1973.9746311593049 L1416.897368840695,2058.952 Q1416.897368840695,2066.952 1424.897368840695,2066.952 L1556.216,2066.952 Q1564.216,2066.952 1564.216,2074.952 L1564.216,2233.552 Q1564.216,2241.552 1572.216,2241.552 L1629.672,2241.552" fill="none" stroke="var(--_line)" stroke-width="1.5" marker-end="url(#arrowhead)" />
<rect x="185.87199999999984" y="244.2" width="293.4719999999999" height="24" fill="var(--bg)" rx="2" ry="2" />
<text x="193.87199999999984" y="256.2" dy="0.35em" style="font-family:'Geist Mono',system-ui,sans-serif;font-size:16px;font-weight:600;text-transform:uppercase;" fill="rgba(255,255,255,0.92)">&quot;Classification&quot;</text>
<rect x="72" y="671.896" width="240.11199999999997" height="24" fill="var(--bg)" rx="2" ry="2" />
<text x="80" y="683.896" dy="0.35em" style="font-family:'Geist Mono',system-ui,sans-serif;font-size:16px;font-weight:600;text-transform:uppercase;" fill="rgba(255,255,255,0.92)">&quot;once mode&quot;</text>
<rect x="446.2719999999998" y="671.8959999999998" width="250.784" height="24" fill="var(--bg)" rx="2" ry="2" />
<text x="454.2719999999998" y="683.8959999999998" dy="0.35em" style="font-family:'Geist Mono',system-ui,sans-serif;font-size:16px;font-weight:600;text-transform:uppercase;" fill="rgba(255,255,255,0.92)">&quot;agent mode&quot;</text>
<rect x="1918.368" y="244.19999999999993" width="240.11199999999997" height="24" fill="var(--bg)" rx="2" ry="2" />
<text x="1926.368" y="256.19999999999993" dy="0.35em" style="font-family:'Geist Mono',system-ui,sans-serif;font-size:16px;font-weight:600;text-transform:uppercase;" fill="rgba(255,255,255,0.92)">&quot;task mode&quot;</text>
<rect x="1084.7279999999996" y="671.8959999999998" width="250.784" height="24" fill="var(--bg)" rx="2" ry="2" />
<text x="1092.7279999999996" y="683.8959999999998" dy="0.35em" style="font-family:'Geist Mono',system-ui,sans-serif;font-size:16px;font-weight:600;text-transform:uppercase;" fill="rgba(255,255,255,0.92)">&quot;phase mode&quot;</text>
<rect x="254.50399999999985" y="628.896" width="57.6" height="26" rx="4" ry="4" fill="var(--bg)" stroke="var(--_inner-stroke)" stroke-width="0.5" />
<text x="283.30399999999986" y="641.896" text-anchor="middle" dy="0.35em" font-size="10" font-weight="400" fill="var(--_text-muted)">&quot;simple&quot;</text>
<rect x="725.9839999999998" y="628.896" width="62.800000000000004" height="26" rx="4" ry="4" fill="var(--bg)" stroke="var(--_inner-stroke)" stroke-width="0.5" />
<text x="757.3839999999998" y="641.896" text-anchor="middle" dy="0.35em" font-size="10" font-weight="400" fill="var(--_text-muted)">&quot;complex&quot;</text>
<rect x="2031.0239999999997" y="628.896" width="78.4" height="26" rx="4" ry="4" fill="var(--bg)" stroke="var(--_inner-stroke)" stroke-width="0.5" />
<text x="2070.2239999999997" y="641.896" text-anchor="middle" dy="0.35em" font-size="10" font-weight="400" fill="var(--_text-muted)">&quot;multi-step&quot;</text>
<rect x="1520.7039999999997" y="628.896" width="68" height="26" rx="4" ry="4" fill="var(--bg)" stroke="var(--_inner-stroke)" stroke-width="0.5" />
<text x="1554.7039999999997" y="641.896" text-anchor="middle" dy="0.35em" font-size="10" font-weight="400" fill="var(--_text-muted)">&quot;workflow&quot;</text>
<rect x="200.5679999999999" y="1273.792" width="31.6" height="26" rx="4" ry="4" fill="var(--bg)" stroke="var(--_inner-stroke)" stroke-width="0.5" />
<text x="216.3679999999999" y="1286.792" text-anchor="middle" dy="0.35em" font-size="10" font-weight="400" fill="var(--_text-muted)">yes</text>
<rect x="337.03999999999985" y="1506.992" width="26.4" height="26" rx="4" ry="4" fill="var(--bg)" stroke="var(--_inner-stroke)" stroke-width="0.5" />
<text x="350.23999999999984" y="1519.992" text-anchor="middle" dy="0.35em" font-size="10" font-weight="400" fill="var(--_text-muted)">no</text>
<rect x="562.1199999999999" y="1506.992" width="94" height="26" rx="4" ry="4" fill="var(--bg)" stroke="var(--_inner-stroke)" stroke-width="0.5" />
<text x="609.1199999999999" y="1519.992" text-anchor="middle" dy="0.35em" font-size="10" font-weight="400" fill="var(--_text-muted)">&quot;SDK/AppServer&quot;</text>
<rect x="864.3679999999998" y="1273.792" width="42" height="26" rx="4" ry="4" fill="var(--bg)" stroke="var(--_inner-stroke)" stroke-width="0.5" />
<text x="885.3679999999998" y="1286.792" text-anchor="middle" dy="0.35em" font-size="10" font-weight="400" fill="var(--_text-muted)">&quot;CLI&quot;</text>
<rect x="933.3039999999999" y="1623.5919999999999" width="68" height="26" rx="4" ry="4" fill="var(--bg)" stroke="var(--_inner-stroke)" stroke-width="0.5" />
<text x="967.3039999999999" y="1636.5919999999999" text-anchor="middle" dy="0.35em" font-size="10" font-weight="400" fill="var(--_text-muted)">&quot;continue&quot;</text>
<rect x="861.7679999999998" y="2111.952" width="47.2" height="26" rx="4" ry="4" fill="var(--bg)" stroke="var(--_inner-stroke)" stroke-width="0.5" />
<text x="885.3679999999998" y="2124.952" text-anchor="middle" dy="0.35em" font-size="10" font-weight="400" fill="var(--_text-muted)">&quot;done&quot;</text>
<rect x="2284.5919999999996" y="628.896" width="36.8" height="26" rx="4" ry="4" fill="var(--bg)" stroke="var(--_inner-stroke)" stroke-width="0.5" />
<text x="2302.9919999999997" y="641.896" text-anchor="middle" dy="0.35em" font-size="10" font-weight="400" fill="var(--_text-muted)">pass</text>
<rect x="2407.9039999999995" y="745.496" width="36.8" height="26" rx="4" ry="4" fill="var(--bg)" stroke="var(--_inner-stroke)" stroke-width="0.5" />
<text x="2426.3039999999996" y="758.496" text-anchor="middle" dy="0.35em" font-size="10" font-weight="400" fill="var(--_text-muted)">fail</text>
<rect x="2535.584" y="628.896" width="68" height="26" rx="4" ry="4" fill="var(--bg)" stroke="var(--_inner-stroke)" stroke-width="0.5" />
<text x="2569.584" y="641.896" text-anchor="middle" dy="0.35em" font-size="10" font-weight="400" fill="var(--_text-muted)">&quot;all done&quot;</text>
<rect x="1190.2079999999996" y="2111.952" width="62.800000000000004" height="26" rx="4" ry="4" fill="var(--bg)" stroke="var(--_inner-stroke)" stroke-width="0.5" />
<text x="1221.6079999999997" y="2124.952" text-anchor="middle" dy="0.35em" font-size="10" font-weight="400" fill="var(--_text-muted)">&quot;approve&quot;</text>
<rect x="1742.2959999999998" y="1506.992" width="57.6" height="26" rx="4" ry="4" fill="var(--bg)" stroke="var(--_inner-stroke)" stroke-width="0.5" />
<text x="1771.0959999999998" y="1519.992" text-anchor="middle" dy="0.35em" font-size="10" font-weight="400" fill="var(--_text-muted)">&quot;reject&quot;</text>
<rect x="1522.416" y="2111.952" width="83.60000000000001" height="26" rx="4" ry="4" fill="var(--bg)" stroke="var(--_inner-stroke)" stroke-width="0.5" />
<text x="1564.216" y="2124.952" text-anchor="middle" dy="0.35em" font-size="10" font-weight="400" fill="var(--_text-muted)">&quot;final phase&quot;</text>
<rect x="616.0719999999999" y="80" width="217.72799999999998" height="67.2" rx="6" ry="6" fill="var(--_node-fill)" stroke="var(--_node-stroke)" stroke-width="0.75" />
<polygon points="724.9359999999999,297.2 855.7839999999999,428.048 724.9359999999999,558.896 594.088,428.048" fill="var(--_node-fill)" stroke="var(--_node-stroke)" stroke-width="0.75" />
<rect x="174.43999999999988" y="724.896" width="217.72799999999998" height="67.2" rx="6" ry="6" fill="var(--_node-fill)" stroke="var(--_node-stroke)" stroke-width="0.75" />
<polygon points="283.30399999999986,972.048 384.1999999999999,1072.944 283.30399999999986,1173.84 182.40799999999984,1072.944" fill="var(--_node-fill)" stroke="var(--_node-stroke)" stroke-width="0.75" />
<rect x="112.49599999999991" y="1369.792" width="207.744" height="67.2" rx="6" ry="6" fill="var(--_node-fill)" stroke="var(--_node-stroke)" stroke-width="0.75" />
<rect x="122.4799999999999" y="1602.992" width="187.776" height="67.2" rx="6" ry="6" fill="var(--_node-fill)" stroke="var(--_node-stroke)" stroke-width="0.75" />
<rect x="189.41599999999985" y="1897.4720000000002" width="187.776" height="67.2" rx="6" ry="6" fill="var(--_node-fill)" stroke="var(--_node-stroke)" stroke-width="0.75" />
<rect x="633.5439999999998" y="724.896" width="247.68" height="67.2" rx="6" ry="6" fill="var(--_node-fill)" stroke="var(--_node-stroke)" stroke-width="0.75" />
<polygon points="757.3839999999998,942.096 888.2319999999997,1072.944 757.3839999999998,1203.792 626.5359999999998,1072.944" fill="var(--_node-fill)" stroke="var(--_node-stroke)" stroke-width="0.75" />
<rect x="490.2719999999999" y="1897.4720000000002" width="237.69600000000003" height="67.2" rx="6" ry="6" fill="var(--_node-fill)" stroke="var(--_node-stroke)" stroke-width="0.75" />
<rect x="776.5039999999998" y="1369.792" width="217.72799999999998" height="67.2" rx="6" ry="6" fill="var(--_node-fill)" stroke="var(--_node-stroke)" stroke-width="0.75" />
<rect x="699.5599999999998" y="1602.992" width="207.744" height="67.2" rx="6" ry="6" fill="var(--_node-fill)" stroke="var(--_node-stroke)" stroke-width="0.75" />
<polygon points="885.3679999999998,1835.1680000000001 981.2719999999998,1931.0720000000001 885.3679999999998,2026.976 789.4639999999998,1931.0720000000001" fill="var(--_node-fill)" stroke="var(--_node-stroke)" stroke-width="0.75" />
<rect x="658.5039999999998" y="2207.952" width="197.76" height="67.2" rx="6" ry="6" fill="var(--_node-fill)" stroke="var(--_node-stroke)" stroke-width="0.75" />
<rect x="1956.3679999999997" y="724.896" width="227.712" height="67.2" rx="6" ry="6" fill="var(--_node-fill)" stroke="var(--_node-stroke)" stroke-width="0.75" />
<rect x="2315.6879999999996" y="1039.344" width="187.776" height="67.2" rx="6" ry="6" fill="var(--_node-fill)" stroke="var(--_node-stroke)" stroke-width="0.75" />
<polygon points="2497.944,332.144 2593.848,428.048 2497.944,523.952 2402.04,428.048" fill="var(--_node-fill)" stroke="var(--_node-stroke)" stroke-width="0.75" />
<rect x="2224.08" y="724.896" width="157.824" height="67.2" rx="6" ry="6" fill="var(--_node-fill)" stroke="var(--_node-stroke)" stroke-width="0.75" />
<rect x="2470.7039999999997" y="724.896" width="197.76" height="67.2" rx="6" ry="6" fill="var(--_node-fill)" stroke="var(--_node-stroke)" stroke-width="0.75" />
<rect x="1360.9759999999997" y="724.896" width="387.45599999999996" height="67.2" rx="6" ry="6" fill="var(--_node-fill)" stroke="var(--_node-stroke)" stroke-width="0.75" />
<rect x="1415.8879999999997" y="1039.344" width="277.63199999999995" height="67.2" rx="6" ry="6" fill="var(--_node-fill)" stroke="var(--_node-stroke)" stroke-width="0.75" />
<rect x="1145.192" y="1369.792" width="137.856" height="67.2" rx="6" ry="6" fill="var(--_node-fill)" stroke="var(--_node-stroke)" stroke-width="0.75" />
<rect x="1362.984" y="1369.792" width="137.856" height="67.2" rx="6" ry="6" fill="var(--_node-fill)" stroke="var(--_node-stroke)" stroke-width="0.75" />
<rect x="1540.8399999999997" y="1369.792" width="137.856" height="67.2" rx="6" ry="6" fill="var(--_node-fill)" stroke="var(--_node-stroke)" stroke-width="0.75" />
<rect x="1235.0639999999999" y="1602.992" width="227.712" height="67.2" rx="6" ry="6" fill="var(--_node-fill)" stroke="var(--_node-stroke)" stroke-width="0.75" />
<polygon points="1348.92,1820.192 1459.8000000000002,1931.0720000000001 1348.92,2041.9520000000002 1238.04,1931.0720000000001" fill="var(--_node-fill)" stroke="var(--_node-stroke)" stroke-width="0.75" />
<rect x="1336.944" y="2207.952" width="167.808" height="67.2" rx="6" ry="6" fill="var(--_node-fill)" stroke="var(--_node-stroke)" stroke-width="0.75" />
<rect x="1638.672" y="2207.952" width="237.69600000000003" height="67.2" rx="6" ry="6" fill="var(--_node-fill)" stroke="var(--_node-stroke)" stroke-width="0.75" />
<text x="724.9359999999999" y="113.6" text-anchor="middle" dy="0.35em" font-size="19.2" font-weight="400" letter-spacing="-0.384" fill="var(--_text)">&quot;Inbound Message&quot;</text>
<text x="724.9359999999999" y="428.048" text-anchor="middle" dy="0.35em" font-size="19.2" font-weight="400" letter-spacing="-0.384" fill="var(--_text)">&quot;Complexity Scorer&quot;</text>
<text x="283.30399999999986" y="758.496" text-anchor="middle" dy="0.35em" font-size="19.2" font-weight="400" letter-spacing="-0.384" fill="var(--_text)">&quot;Single LLM call&quot;</text>
<text x="283.30399999999986" y="1072.944" text-anchor="middle" dy="0.35em" font-size="19.2" font-weight="400" letter-spacing="-0.384" fill="var(--_text)">&quot;tool_calls?&quot;</text>
<text x="216.3679999999999" y="1403.3919999999998" text-anchor="middle" dy="0.35em" font-size="19.2" font-weight="400" letter-spacing="-0.384" fill="var(--_text)">&quot;Tool Execution&quot;</text>
<text x="216.3679999999999" y="1636.5919999999999" text-anchor="middle" dy="0.35em" font-size="19.2" font-weight="400" letter-spacing="-0.384" fill="var(--_text)">&quot;Followup LLM&quot;</text>
<text x="283.30399999999986" y="1931.0720000000001" text-anchor="middle" dy="0.35em" font-size="19.2" font-weight="400" letter-spacing="-0.384" fill="var(--_text)">&quot;Return reply&quot;</text>
<text x="757.3839999999998" y="758.496" text-anchor="middle" dy="0.35em" font-size="19.2" font-weight="400" letter-spacing="-0.384" fill="var(--_text)">&quot;AgentBackend.run()&quot;</text>
<text x="757.3839999999998" y="1072.944" text-anchor="middle" dy="0.35em" font-size="19.2" font-weight="400" letter-spacing="-0.384" fill="var(--_text)">&quot;native_tool_loop?&quot;</text>
<text x="609.1199999999999" y="1931.0720000000001" text-anchor="middle" dy="0.35em" font-size="19.2" font-weight="400" letter-spacing="-0.384" fill="var(--_text)">&quot;SDK internal loop&quot;</text>
<text x="885.3679999999998" y="1403.3919999999998" text-anchor="middle" dy="0.35em" font-size="19.2" font-weight="400" letter-spacing="-0.384" fill="var(--_text)">&quot;CLI single turn&quot;</text>
<text x="803.4319999999998" y="1636.5919999999999" text-anchor="middle" dy="0.35em" font-size="19.2" font-weight="400" letter-spacing="-0.384" fill="var(--_text)">&quot;Tool Execution&quot;</text>
<text x="885.3679999999998" y="1931.0720000000001" text-anchor="middle" dy="0.35em" font-size="19.2" font-weight="400" letter-spacing="-0.384" fill="var(--_text)">&quot;max_turns?&quot;</text>
<text x="757.3839999999998" y="2241.552" text-anchor="middle" dy="0.35em" font-size="19.2" font-weight="400" letter-spacing="-0.384" fill="var(--_text)">&quot;Return result&quot;</text>
<text x="2070.2239999999997" y="758.496" text-anchor="middle" dy="0.35em" font-size="19.2" font-weight="400" letter-spacing="-0.384" fill="var(--_text)">&quot;Build plan nodes&quot;</text>
<text x="2409.5759999999996" y="1072.944" text-anchor="middle" dy="0.35em" font-size="19.2" font-weight="400" letter-spacing="-0.384" fill="var(--_text)">&quot;Execute node&quot;</text>
<text x="2497.944" y="428.048" text-anchor="middle" dy="0.35em" font-size="19.2" font-weight="400" letter-spacing="-0.384" fill="var(--_text)">&quot;Phase Gate&quot;</text>
<text x="2302.9919999999997" y="758.496" text-anchor="middle" dy="0.35em" font-size="19.2" font-weight="400" letter-spacing="-0.384" fill="var(--_text)">&quot;Next node&quot;</text>
<text x="2569.584" y="758.496" text-anchor="middle" dy="0.35em" font-size="19.2" font-weight="400" letter-spacing="-0.384" fill="var(--_text)">&quot;Task complete&quot;</text>
<text x="1554.7039999999997" y="758.496" text-anchor="middle" dy="0.35em" font-size="19.2" font-weight="400" letter-spacing="-0.384" fill="var(--_text)">&quot;Load workflow&lt;br/&gt;YAML / dynamic&quot;</text>
<text x="1554.7039999999997" y="1072.944" text-anchor="middle" dy="0.35em" font-size="19.2" font-weight="400" letter-spacing="-0.384" fill="var(--_text)">&quot;Spawn parallel agents&quot;</text>
<text x="1214.12" y="1403.3919999999998" text-anchor="middle" dy="0.35em" font-size="19.2" font-weight="400" letter-spacing="-0.384" fill="var(--_text)">&quot;Agent 1&quot;</text>
<text x="1431.9119999999998" y="1403.3919999999998" text-anchor="middle" dy="0.35em" font-size="19.2" font-weight="400" letter-spacing="-0.384" fill="var(--_text)">&quot;Agent 2&quot;</text>
<text x="1609.7679999999996" y="1403.3919999999998" text-anchor="middle" dy="0.35em" font-size="19.2" font-weight="400" letter-spacing="-0.384" fill="var(--_text)">&quot;Agent N&quot;</text>
<text x="1348.9199999999998" y="1636.5919999999999" text-anchor="middle" dy="0.35em" font-size="19.2" font-weight="400" letter-spacing="-0.384" fill="var(--_text)">&quot;Await all agents&quot;</text>
<text x="1348.92" y="1931.0720000000001" text-anchor="middle" dy="0.35em" font-size="19.2" font-weight="400" letter-spacing="-0.384" fill="var(--_text)">&quot;Critic review&quot;</text>
<text x="1420.848" y="2241.552" text-anchor="middle" dy="0.35em" font-size="19.2" font-weight="400" letter-spacing="-0.384" fill="var(--_text)">&quot;Next phase&quot;</text>
<text x="1757.52" y="2241.552" text-anchor="middle" dy="0.35em" font-size="19.2" font-weight="400" letter-spacing="-0.384" fill="var(--_text)">&quot;Workflow complete&quot;</text>
</svg>