<svg xmlns="http://www.w3.org/2000/svg" viewBox="0 0 2087.552 744" width="2087.552" height="744" style="--bg:#0A0A0A;--fg:#EDEDED;--line:#EDEDED;--accent:#EDEDED;--muted:#888888;--surface:#0A0A0A;--border:#454545;background:var(--bg)">
<style>
  @import url('https://fonts.googleapis.com/css2?family=Geist:wght@400;500;600;700&amp;display=swap');
  text { font-family: 'Geist', system-ui, sans-serif; }
  svg {
    /* Derived from --bg and --fg (overridable via --line, --accent, etc.) */
    --_text:          var(--fg);
    --_text-sec:      var(--muted, color-mix(in srgb, var(--fg) 60%, var(--bg)));
    --_text-muted:    var(--muted, color-mix(in srgb, var(--fg) 40%, var(--bg)));
    --_text-faint:    color-mix(in srgb, var(--fg) 25%, var(--bg));
    --_line:          var(--line, color-mix(in srgb, var(--fg) 30%, var(--bg)));
    --_arrow:         var(--accent, color-mix(in srgb, var(--fg) 50%, var(--bg)));
    --_node-fill:     var(--surface, color-mix(in srgb, var(--fg) 3%, var(--bg)));
    --_node-stroke:   var(--border, color-mix(in srgb, var(--fg) 20%, var(--bg)));
    --_group-fill:    var(--bg);
    --_group-hdr:     color-mix(in srgb, var(--fg) 5%, var(--bg));
    --_inner-stroke:  color-mix(in srgb, var(--fg) 12%, var(--bg));
    --_key-badge:     color-mix(in srgb, var(--fg) 10%, var(--bg));
  }
</style>
<defs>
  <marker id="arrowhead" markerWidth="7" markerHeight="7" refX="0" refY="3.5" orient="auto" markerUnits="userSpaceOnUse" overflow="visible">
    <polygon points="0 0, 7 3.5, 0 7" fill="var(--_arrow)" />
  </marker>
  <marker id="arrowhead-start" markerWidth="7" markerHeight="7" refX="7" refY="3.5" orient="auto-start-reverse" markerUnits="userSpaceOnUse" overflow="visible">
    <polygon points="7 0, 0 3.5, 7 7" fill="var(--_arrow)" />
  </marker>
  <pattern id="diag-hatch" width="6" height="6" patternUnits="userSpaceOnUse" patternTransform="rotate(45)">
    <rect width="6" height="6" fill="var(--bg)" />
    <line x1="0" y1="0" x2="0" y2="6" stroke="#171717" stroke-width="3" />
  </pattern>
</defs>
<polyline points="872.48,147.2 872.48,188.20000000000002" fill="none" stroke="var(--_line)" stroke-width="1.5" marker-end="url(#arrowhead)" />
<path d="M872.48,264.40000000000003 L872.48,289.4 Q872.48,297.4 880.48,297.4 L969.972,297.4 Q977.972,297.4 977.972,305.4 L977.972,321.4" fill="none" stroke="var(--_line)" stroke-width="1.5" marker-end="url(#arrowhead)" />
<path d="M872.48,264.40000000000003 L872.48,289.4 Q872.48,297.4 864.48,297.4 L774.988,297.4 Q766.988,297.4 766.988,305.4 L766.988,489.20000000000005 Q766.988,497.20000000000005 758.988,497.20000000000005 L707.72,497.20000000000005" fill="none" stroke="var(--_line)" stroke-width="1.5" marker-end="url(#arrowhead)" />
<path d="M977.972,397.6 L977.972,489.20000000000005 Q977.972,497.20000000000005 985.972,497.20000000000005 L1037.24,497.20000000000005" fill="none" stroke="var(--_line)" stroke-width="1.5" marker-end="url(#arrowhead)" />
<path d="M872.48,530.8000000000001 L872.48,555.8 Q872.48,563.8 864.48,563.8 L252.336,563.8 Q244.336,563.8 244.336,571.8 L244.336,622.4 Q244.336,630.4 236.336,630.4 L88.99999999999997,630.4" fill="none" stroke="var(--_line)" stroke-width="1.5" marker-end="url(#arrowhead)" />
<path d="M872.48,530.8000000000001 L872.48,555.8 Q872.48,563.8 864.48,563.8 L502.38399999999996,563.8 Q494.38399999999996,563.8 494.38399999999996,571.8 L494.38399999999996,628.8559999999999 Q494.38399999999996,630.4 495.928,630.4 L497.4720000000001,630.4" fill="none" stroke="var(--_line)" stroke-width="1.5" marker-end="url(#arrowhead)" />
<path d="M872.48,530.8000000000001 L872.48,555.8 Q872.48,563.8 880.48,563.8 L1041.328,563.8 Q1049.328,563.8 1049.328,571.8 L1049.328,622.4 Q1049.328,630.4 1041.328,630.4 L893.9920000000001,630.4" fill="none" stroke="var(--_line)" stroke-width="1.5" marker-end="url(#arrowhead)" />
<path d="M872.48,530.8000000000001 L872.48,555.8 Q872.48,563.8 880.48,563.8 L1463.232,563.8 Q1471.232,563.8 1471.232,571.8 L1471.232,587.8" fill="none" stroke="var(--_line)" stroke-width="1.5" marker-end="url(#arrowhead)" />
<path d="M872.48,530.8000000000001 L872.48,555.8 Q872.48,563.8 880.48,563.8 L1835.7759999999998,563.8 Q1843.7759999999998,563.8 1843.7759999999998,571.8 L1843.7759999999998,587.8" fill="none" stroke="var(--_line)" stroke-width="1.5" marker-end="url(#arrowhead)" />
<path d="M268.736,596.8 L268.736,571.8 Q268.736,563.8 276.736,563.8 L437.58399999999995,563.8 Q445.58399999999995,563.8 445.58399999999995,555.8 L445.58399999999995,505.20000000000005 Q445.58399999999995,497.20000000000005 453.58399999999995,497.20000000000005 L689.72,497.20000000000005" fill="none" stroke="var(--_line)" stroke-width="1.5" marker-end="url(#arrowhead)" />
<path d="M671.2320000000001,596.8 L671.2320000000001,571.8 Q671.2320000000001,563.8 679.2320000000001,563.8 L687.6320000000001,563.8 Q695.6320000000001,563.8 695.6320000000001,555.8 L695.6320000000001,498.744 Q695.6320000000001,497.20000000000005 697.176,497.20000000000005 L698.72,497.20000000000005" fill="none" stroke="var(--_line)" stroke-width="1.5" marker-end="url(#arrowhead)" />
<path d="M1073.728,596.8 L1073.728,571.8 Q1073.728,563.8 1081.728,563.8 L1238.78,563.8 Q1246.78,563.8 1246.78,555.8 L1246.78,505.20000000000005 Q1246.78,497.20000000000005 1238.78,497.20000000000005 L1055.24,497.20000000000005" fill="none" stroke="var(--_line)" stroke-width="1.5" marker-end="url(#arrowhead)" />
<rect x="951.7719999999999" y="284.4" width="52.4" height="26" rx="4" ry="4" fill="var(--bg)" stroke="var(--_inner-stroke)" stroke-width="0.5" />
<text x="977.972" y="297.4" text-anchor="middle" dy="0.35em" font-size="10" font-weight="400" fill="var(--_text-muted)">&quot;기획 필요&quot;</text>
<rect x="740.788" y="351" width="52.4" height="26" rx="4" ry="4" fill="var(--bg)" stroke="var(--_inner-stroke)" stroke-width="0.5" />
<text x="766.988" y="364" text-anchor="middle" dy="0.35em" font-size="10" font-weight="400" fill="var(--_text-muted)">&quot;즉시 실행&quot;</text>
<rect x="951.7719999999999" y="417.6" width="52.4" height="26" rx="4" ry="4" fill="var(--bg)" stroke="var(--_inner-stroke)" stroke-width="0.5" />
<text x="977.972" y="430.6" text-anchor="middle" dy="0.35em" font-size="10" font-weight="400" fill="var(--_text-muted)">&quot;스펙 전달&quot;</text>
<rect x="225.936" y="550.8" width="36.8" height="26" rx="4" ry="4" fill="var(--bg)" stroke="var(--_inner-stroke)" stroke-width="0.5" />
<text x="244.336" y="563.8" text-anchor="middle" dy="0.35em" font-size="10" font-weight="400" fill="var(--_text-muted)">&quot;구현&quot;</text>
<rect x="475.984" y="550.8" width="36.8" height="26" rx="4" ry="4" fill="var(--bg)" stroke="var(--_inner-stroke)" stroke-width="0.5" />
<text x="494.38399999999996" y="563.8" text-anchor="middle" dy="0.35em" font-size="10" font-weight="400" fill="var(--_text-muted)">&quot;리뷰&quot;</text>
<rect x="1030.9279999999999" y="550.8" width="36.8" height="26" rx="4" ry="4" fill="var(--bg)" stroke="var(--_inner-stroke)" stroke-width="0.5" />
<text x="1049.328" y="563.8" text-anchor="middle" dy="0.35em" font-size="10" font-weight="400" fill="var(--_text-muted)">&quot;검증&quot;</text>
<rect x="1450.232" y="550.8" width="42" height="26" rx="4" ry="4" fill="var(--bg)" stroke="var(--_inner-stroke)" stroke-width="0.5" />
<text x="1471.232" y="563.8" text-anchor="middle" dy="0.35em" font-size="10" font-weight="400" fill="var(--_text-muted)">&quot;디버깅&quot;</text>
<rect x="1825.3759999999997" y="550.8" width="36.8" height="26" rx="4" ry="4" fill="var(--bg)" stroke="var(--_inner-stroke)" stroke-width="0.5" />
<text x="1843.7759999999998" y="563.8" text-anchor="middle" dy="0.35em" font-size="10" font-weight="400" fill="var(--_text-muted)">&quot;잡무&quot;</text>
<rect x="427.18399999999997" y="550.8" width="36.8" height="26" rx="4" ry="4" fill="var(--bg)" stroke="var(--_inner-stroke)" stroke-width="0.5" />
<text x="445.58399999999995" y="563.8" text-anchor="middle" dy="0.35em" font-size="10" font-weight="400" fill="var(--_text-muted)">&quot;완료&quot;</text>
<rect x="677.2320000000001" y="550.8" width="36.8" height="26" rx="4" ry="4" fill="var(--bg)" stroke="var(--_inner-stroke)" stroke-width="0.5" />
<text x="695.6320000000001" y="563.8" text-anchor="middle" dy="0.35em" font-size="10" font-weight="400" fill="var(--_text-muted)">&quot;결과&quot;</text>
<rect x="1228.3799999999999" y="550.8" width="36.8" height="26" rx="4" ry="4" fill="var(--bg)" stroke="var(--_inner-stroke)" stroke-width="0.5" />
<text x="1246.78" y="563.8" text-anchor="middle" dy="0.35em" font-size="10" font-weight="400" fill="var(--_text-muted)">&quot;결과&quot;</text>
<rect x="778.592" y="80" width="187.776" height="67.2" rx="6" ry="6" fill="var(--_node-fill)" stroke="var(--_node-stroke)" stroke-width="0.75" />
<rect x="693.7280000000001" y="197.20000000000002" width="357.50399999999996" height="67.2" rx="6" ry="6" fill="#2d4a6a" stroke="#5a8abf" stroke-width="0.75" />
<rect x="819.188" y="330.4" width="317.568" height="67.2" rx="6" ry="6" fill="#4a2d6a" stroke="#8a5abf" stroke-width="0.75" />
<rect x="698.72" y="463.6" width="347.52" height="67.2" rx="6" ry="6" fill="#2d6a4a" stroke="#5abf8a" stroke-width="0.75" />
<rect x="79.99999999999997" y="596.8" width="377.47200000000004" height="67.2" rx="6" ry="6" fill="#6a5a2d" stroke="#bf9a5a" stroke-width="0.75" />
<rect x="497.4720000000001" y="596.8" width="347.52" height="67.2" rx="6" ry="6" fill="#6a2d4a" stroke="#bf5a8a" stroke-width="0.75" />
<rect x="884.9920000000001" y="596.8" width="377.47200000000004" height="67.2" rx="6" ry="6" fill="#2d6a2d" stroke="#5abf5a" stroke-width="0.75" />
<rect x="1302.464" y="596.8" width="337.536" height="67.2" rx="6" ry="6" fill="#6a2d2d" stroke="#bf5a5a" stroke-width="0.75" />
<rect x="1679.9999999999998" y="596.8" width="327.552" height="67.2" rx="6" ry="6" fill="#4a4a4a" stroke="#8a8a8a" stroke-width="0.75" />
<text x="872.48" y="113.6" text-anchor="middle" dy="0.35em" font-size="19.2" font-weight="400" letter-spacing="-0.384" fill="var(--_text)">&quot;User Message&quot;</text>
<text x="872.48" y="230.8" text-anchor="middle" dy="0.35em" font-size="19.2" font-weight="400" letter-spacing="-0.384" fill="var(--_text)">&quot;🏠 concierge&lt;br/&gt;사용자 대면 · 비개발 처리&quot;</text>
<text x="977.972" y="364" text-anchor="middle" dy="0.35em" font-size="19.2" font-weight="400" letter-spacing="-0.384" fill="var(--_text)">&quot;📋 pm&lt;br/&gt;요구사항 분석 · 스펙 작성&quot;</text>
<text x="872.48" y="497.20000000000005" text-anchor="middle" dy="0.35em" font-size="19.2" font-weight="400" letter-spacing="-0.384" fill="var(--_text)">&quot;🔧 pl&lt;br/&gt;실행 조율 · Phase Gate&quot;</text>
<text x="268.736" y="630.4" text-anchor="middle" dy="0.35em" font-size="19.2" font-weight="400" letter-spacing="-0.384" fill="var(--_text)">&quot;⚡ implementer&lt;br/&gt;코드 구현 · 셀프 검증&quot;</text>
<text x="671.2320000000001" y="630.4" text-anchor="middle" dy="0.35em" font-size="19.2" font-weight="400" letter-spacing="-0.384" fill="var(--_text)">&quot;🔍 reviewer&lt;br/&gt;품질 · 보안 · 성능&quot;</text>
<text x="1073.728" y="630.4" text-anchor="middle" dy="0.35em" font-size="19.2" font-weight="400" letter-spacing="-0.384" fill="var(--_text)">&quot;✅ validator&lt;br/&gt;빌드 · 테스트 · lint&quot;</text>
<text x="1471.232" y="630.4" text-anchor="middle" dy="0.35em" font-size="19.2" font-weight="400" letter-spacing="-0.384" fill="var(--_text)">&quot;🐛 debugger&lt;br/&gt;RCA · 수정 제안&quot;</text>
<text x="1843.7759999999998" y="630.4" text-anchor="middle" dy="0.35em" font-size="19.2" font-weight="400" letter-spacing="-0.384" fill="var(--_text)">&quot;🔄 generalist&lt;br/&gt;범용 단일 작업&quot;</text>
</svg>