<svg xmlns="http://www.w3.org/2000/svg" viewBox="0 0 4782.936 460.2" width="4782.936" height="460.2" style="--bg:#0A0A0A;--fg:#EDEDED;--line:#EDEDED;--accent:#EDEDED;--muted:#888888;--surface:#0A0A0A;--border:#454545;background:var(--bg)">
<style>
  @import url('https://fonts.googleapis.com/css2?family=Geist:wght@400;500;600;700&amp;display=swap');
  text { font-family: 'Geist', system-ui, sans-serif; }
  svg {
    /* Derived from --bg and --fg (overridable via --line, --accent, etc.) */
    --_text:          var(--fg);
    --_text-sec:      var(--muted, color-mix(in srgb, var(--fg) 60%, var(--bg)));
    --_text-muted:    var(--muted, color-mix(in srgb, var(--fg) 40%, var(--bg)));
    --_text-faint:    color-mix(in srgb, var(--fg) 25%, var(--bg));
    --_line:          var(--line, color-mix(in srgb, var(--fg) 30%, var(--bg)));
    --_arrow:         var(--accent, color-mix(in srgb, var(--fg) 50%, var(--bg)));
    --_node-fill:     var(--surface, color-mix(in srgb, var(--fg) 3%, var(--bg)));
    --_node-stroke:   var(--border, color-mix(in srgb, var(--fg) 20%, var(--bg)));
    --_group-fill:    var(--bg);
    --_group-hdr:     color-mix(in srgb, var(--fg) 5%, var(--bg));
    --_inner-stroke:  color-mix(in srgb, var(--fg) 12%, var(--bg));
    --_key-badge:     color-mix(in srgb, var(--fg) 10%, var(--bg));
  }
</style>
<defs>
  <marker id="arrowhead" markerWidth="7" markerHeight="7" refX="0" refY="3.5" orient="auto" markerUnits="userSpaceOnUse" overflow="visible">
    <polygon points="0 0, 7 3.5, 0 7" fill="var(--_arrow)" />
  </marker>
  <marker id="arrowhead-start" markerWidth="7" markerHeight="7" refX="7" refY="3.5" orient="auto-start-reverse" markerUnits="userSpaceOnUse" overflow="visible">
    <polygon points="7 0, 0 3.5, 7 7" fill="var(--_arrow)" />
  </marker>
  <pattern id="diag-hatch" width="6" height="6" patternUnits="userSpaceOnUse" patternTransform="rotate(45)">
    <rect width="6" height="6" fill="var(--bg)" />
    <line x1="0" y1="0" x2="0" y2="6" stroke="#171717" stroke-width="3" />
  </pattern>
</defs>
<rect x="64.00000000000003" y="80" width="479.44" height="187.2" rx="3" ry="3" fill="url(#diag-hatch)" stroke="#454545" stroke-width="1" />
<polyline points="412.584,310.8 643.44,310.8" fill="none" stroke="var(--_line)" stroke-width="1.5" marker-end="url(#arrowhead)" />
<path d="M970.008,310.8 L1054.008,310.8 Q1062.008,310.8 1062.008,318.8 L1062.008,338.6 Q1062.008,346.6 1070.008,346.6 L1145.008,346.6" fill="none" stroke="var(--_line)" stroke-width="1.5" marker-end="url(#arrowhead)" />
<polyline points="1381.72,346.6 1522.72,346.6" fill="none" stroke="var(--_line)" stroke-width="1.5" marker-end="url(#arrowhead)" />
<polyline points="1829.32,346.6 1970.3200000000002,346.6" fill="none" stroke="var(--_line)" stroke-width="1.5" marker-end="url(#arrowhead)" />
<path d="M970.008,310.8 L987.008,310.8 Q995.008,310.8 995.008,302.8 L995.008,283 Q995.008,275 1003.008,275 L2539.676,275 Q2540.776,275 2540.776,276.1 L2540.776,277.20000000000005" fill="none" stroke="var(--_line)" stroke-width="1.5" marker-end="url(#arrowhead)" />
<path d="M2217.016,346.6 L2539.676,346.6 Q2540.776,346.6 2540.776,345.5 L2540.776,344.40000000000003" fill="none" stroke="var(--_line)" stroke-width="1.5" marker-end="url(#arrowhead)" />
<polyline points="2714.536,310.8 2855.536,310.8" fill="none" stroke="var(--_line)" stroke-width="1.5" marker-end="url(#arrowhead)" />
<polyline points="3132.184,310.8 3273.184,310.8" fill="none" stroke="var(--_line)" stroke-width="1.5" marker-end="url(#arrowhead)" />
<polyline points="3519.88,310.8 3660.88,310.8" fill="none" stroke="var(--_line)" stroke-width="1.5" marker-end="url(#arrowhead)" />
<polyline points="3957.496,310.8 4098.496,310.8" fill="none" stroke="var(--_line)" stroke-width="1.5" marker-end="url(#arrowhead)" />
<polyline points="4325.223999999999,310.8 4466.224,310.8" fill="none" stroke="var(--_line)" stroke-width="1.5" marker-end="url(#arrowhead)" />
<rect x="72.00000000000003" y="92" width="250.784" height="24" fill="var(--bg)" rx="2" ry="2" />
<text x="80.00000000000003" y="104" dy="0.35em" style="font-family:'Geist Mono',system-ui,sans-serif;font-size:16px;font-weight:600;text-transform:uppercase;" fill="rgba(255,255,255,0.92)">&quot;Key Format&quot;</text>
<rect x="1041.008" y="333.6" width="42" height="26" rx="4" ry="4" fill="var(--bg)" stroke="var(--_inner-stroke)" stroke-width="0.5" />
<text x="1062.008" y="346.6" text-anchor="middle" dy="0.35em" font-size="10" font-weight="400" fill="var(--_text-muted)">found</text>
<rect x="1659.52" y="262" width="42" height="26" rx="4" ry="4" fill="var(--bg)" stroke="var(--_inner-stroke)" stroke-width="0.5" />
<text x="1680.52" y="275" text-anchor="middle" dy="0.35em" font-size="10" font-weight="400" fill="var(--_text-muted)">clean</text>
<rect x="194.85600000000005" y="277.20000000000005" width="217.72799999999998" height="67.2" rx="6" ry="6" fill="var(--_node-fill)" stroke="var(--_node-stroke)" stroke-width="0.75" />
<rect x="652.44" y="277.20000000000005" width="317.568" height="67.2" rx="6" ry="6" fill="var(--_node-fill)" stroke="var(--_node-stroke)" stroke-width="0.75" />
<rect x="1154.008" y="313" width="227.712" height="67.2" rx="6" ry="6" fill="#6a2d2d" stroke="#bf5a5a" stroke-width="0.75" />
<rect x="1531.72" y="313" width="297.6" height="67.2" rx="6" ry="6" fill="var(--_node-fill)" stroke="var(--_node-stroke)" stroke-width="0.75" />
<rect x="1979.3200000000002" y="313" width="237.69600000000003" height="67.2" rx="6" ry="6" fill="#2d4a6a" stroke="#5a8abf" stroke-width="0.75" />
<rect x="2367.0159999999996" y="277.20000000000005" width="347.52" height="67.2" rx="6" ry="6" fill="var(--_node-fill)" stroke="var(--_node-stroke)" stroke-width="0.75" />
<rect x="2864.536" y="277.20000000000005" width="267.648" height="67.2" rx="6" ry="6" fill="var(--_node-fill)" stroke="var(--_node-stroke)" stroke-width="0.75" />
<rect x="3282.184" y="277.20000000000005" width="237.69600000000003" height="67.2" rx="6" ry="6" fill="#2d6a2d" stroke="#5abf5a" stroke-width="0.75" />
<rect x="3669.88" y="277.20000000000005" width="287.616" height="67.2" rx="6" ry="6" fill="var(--_node-fill)" stroke="var(--_node-stroke)" stroke-width="0.75" />
<rect x="4107.496" y="277.20000000000005" width="217.72799999999998" height="67.2" rx="6" ry="6" fill="var(--_node-fill)" stroke="var(--_node-stroke)" stroke-width="0.75" />
<rect x="4475.224" y="277.20000000000005" width="227.712" height="67.2" rx="6" ry="6" fill="var(--_node-fill)" stroke="var(--_node-stroke)" stroke-width="0.75" />
<rect x="105.00000000000003" y="150" width="397.44" height="67.2" rx="6" ry="6" fill="var(--_node-fill)" stroke="var(--_node-stroke)" stroke-width="0.75" />
<text x="303.72" y="310.80000000000007" text-anchor="middle" dy="0.35em" font-size="19.2" font-weight="400" letter-spacing="-0.384" fill="var(--_text)">&quot;Inbound Message&quot;</text>
<text x="811.224" y="310.80000000000007" text-anchor="middle" dy="0.35em" font-size="19.2" font-weight="400" letter-spacing="-0.384" fill="var(--_text)">&quot;Detect Sensitive Patterns&quot;</text>
<text x="1267.864" y="346.6" text-anchor="middle" dy="0.35em" font-size="19.2" font-weight="400" letter-spacing="-0.384" fill="var(--_text)">&quot;Seal AES-256-GCM&quot;</text>
<text x="1680.52" y="346.6" text-anchor="middle" dy="0.35em" font-size="19.2" font-weight="400" letter-spacing="-0.384" fill="var(--_text)">&quot;Replace with secret ref&quot;</text>
<text x="2098.168" y="346.6" text-anchor="middle" dy="0.35em" font-size="19.2" font-weight="400" letter-spacing="-0.384" fill="var(--_text)">&quot;SecretVault store&quot;</text>
<text x="2540.776" y="310.80000000000007" text-anchor="middle" dy="0.35em" font-size="19.2" font-weight="400" letter-spacing="-0.384" fill="var(--_text)">&quot;Agent receives sealed prompt&quot;</text>
<text x="2998.36" y="310.80000000000007" text-anchor="middle" dy="0.35em" font-size="19.2" font-weight="400" letter-spacing="-0.384" fill="var(--_text)">&quot;Tool requests secret&quot;</text>
<text x="3401.032" y="310.80000000000007" text-anchor="middle" dy="0.35em" font-size="19.2" font-weight="400" letter-spacing="-0.384" fill="var(--_text)">&quot;Vault decrypt JIT&quot;</text>
<text x="3813.688" y="310.80000000000007" text-anchor="middle" dy="0.35em" font-size="19.2" font-weight="400" letter-spacing="-0.384" fill="var(--_text)">&quot;Execute with plaintext&quot;</text>
<text x="4216.36" y="310.80000000000007" text-anchor="middle" dy="0.35em" font-size="19.2" font-weight="400" letter-spacing="-0.384" fill="var(--_text)">&quot;Response redact&quot;</text>
<text x="4589.08" y="310.80000000000007" text-anchor="middle" dy="0.35em" font-size="19.2" font-weight="400" letter-spacing="-0.384" fill="var(--_text)">&quot;Outbound Message&quot;</text>
<text x="303.72" y="183.6" text-anchor="middle" dy="0.35em" font-size="19.2" font-weight="400" letter-spacing="-0.384" fill="var(--_text)">&quot;inbound.provider.cHash.type.vHash&quot;</text>
</svg>