<svg xmlns="http://www.w3.org/2000/svg" viewBox="0 0 5469.124 2052.2" width="5469.124" height="2052.2" style="--bg:#0A0A0A;--fg:#EDEDED;--line:#EDEDED;--accent:#EDEDED;--muted:#888888;--surface:#0A0A0A;--border:#454545;background:var(--bg)">
<style>
  @import url('https://fonts.googleapis.com/css2?family=Geist:wght@400;500;600;700&amp;display=swap');
  text { font-family: 'Geist', system-ui, sans-serif; }
  svg {
    /* Derived from --bg and --fg (overridable via --line, --accent, etc.) */
    --_text:          var(--fg);
    --_text-sec:      var(--muted, color-mix(in srgb, var(--fg) 60%, var(--bg)));
    --_text-muted:    var(--muted, color-mix(in srgb, var(--fg) 40%, var(--bg)));
    --_text-faint:    color-mix(in srgb, var(--fg) 25%, var(--bg));
    --_line:          var(--line, color-mix(in srgb, var(--fg) 30%, var(--bg)));
    --_arrow:         var(--accent, color-mix(in srgb, var(--fg) 50%, var(--bg)));
    --_node-fill:     var(--surface, color-mix(in srgb, var(--fg) 3%, var(--bg)));
    --_node-stroke:   var(--border, color-mix(in srgb, var(--fg) 20%, var(--bg)));
    --_group-fill:    var(--bg);
    --_group-hdr:     color-mix(in srgb, var(--fg) 5%, var(--bg));
    --_inner-stroke:  color-mix(in srgb, var(--fg) 12%, var(--bg));
    --_key-badge:     color-mix(in srgb, var(--fg) 10%, var(--bg));
  }
</style>
<defs>
  <marker id="arrowhead" markerWidth="7" markerHeight="7" refX="0" refY="3.5" orient="auto" markerUnits="userSpaceOnUse" overflow="visible">
    <polygon points="0 0, 7 3.5, 0 7" fill="var(--_arrow)" />
  </marker>
  <marker id="arrowhead-start" markerWidth="7" markerHeight="7" refX="7" refY="3.5" orient="auto-start-reverse" markerUnits="userSpaceOnUse" overflow="visible">
    <polygon points="7 0, 0 3.5, 7 7" fill="var(--_arrow)" />
  </marker>
  <pattern id="diag-hatch" width="6" height="6" patternUnits="userSpaceOnUse" patternTransform="rotate(45)">
    <rect width="6" height="6" fill="var(--bg)" />
    <line x1="0" y1="0" x2="0" y2="6" stroke="#171717" stroke-width="3" />
  </pattern>
</defs>
<rect x="64" y="80" width="4587.844" height="1892.2" rx="3" ry="3" fill="url(#diag-hatch)" stroke="#454545" stroke-width="1" />
<rect x="3822.5919999999996" y="120" width="809.252" height="1510" rx="3" ry="3" fill="url(#diag-hatch)" stroke="#454545" stroke-width="1" />
<rect x="2188.16" y="1452.8" width="1646.432" height="494.4000000000001" rx="3" ry="3" fill="url(#diag-hatch)" stroke="#454545" stroke-width="1" />
<rect x="550.0159999999996" y="1452.8000000000002" width="1650.1440000000002" height="177.20000000000005" rx="3" ry="3" fill="url(#diag-hatch)" stroke="#454545" stroke-width="1" />
<rect x="4639.844" y="428.19999999999993" width="765.28" height="227.2" rx="3" ry="3" fill="url(#diag-hatch)" stroke="#454545" stroke-width="1" />
<rect x="4686.384" y="1427.8000000000002" width="717.216" height="227.20000000000005" rx="3" ry="3" fill="url(#diag-hatch)" stroke="#454545" stroke-width="1" />
<path d="M684.9120000000003,1251.7999999999997 L684.9120000000003,1268.8 Q684.9120000000003,1276.8 692.9120000000003,1276.8 L3989.8959999999997,1276.8 Q3997.8959999999997,1276.8 3997.8959999999997,1284.8 L3997.8959999999997,1543.3999999999999 Q3997.8959999999997,1551.3999999999999 3989.8959999999997,1551.3999999999999 L3877.5919999999996,1551.3999999999999" fill="none" stroke="var(--_line)" stroke-width="1.5" marker-end="url(#arrowhead)" />
<polyline points="684.9120000000003,1251.7999999999997 684.9120000000003,1508.8" fill="none" stroke="var(--_line)" stroke-width="1.5" marker-end="url(#arrowhead)" />
<path d="M3036.3360000000002,1584.9999999999998 L3036.3360000000002,1702 Q3036.3360000000002,1710 3044.3360000000002,1710 L3696.688,1710 Q3704.688,1710 3704.688,1718 L3704.688,1826" fill="none" stroke="var(--_line)" stroke-width="1.5" marker-end="url(#arrowhead)" />
<path d="M3036.3360000000002,1584.9999999999998 L3036.3360000000002,1702 Q3036.3360000000002,1710 3044.3360000000002,1710 L3488.88,1710 Q3496.88,1710 3496.88,1718 L3496.88,1826" fill="none" stroke="var(--_line)" stroke-width="1.5" marker-end="url(#arrowhead)" />
<path d="M3036.3360000000002,1584.9999999999998 L3036.3360000000002,1702 Q3036.3360000000002,1710 3044.3360000000002,1710 L3256.112,1710 Q3264.112,1710 3264.112,1718 L3264.112,1826" fill="none" stroke="var(--_line)" stroke-width="1.5" marker-end="url(#arrowhead)" />
<polyline points="3036.3360000000002,1584.9999999999998 3036.3360000000002,1826" fill="none" stroke="var(--_line)" stroke-width="1.5" marker-end="url(#arrowhead)" />
<path d="M3036.3360000000002,1584.9999999999998 L3036.3360000000002,1702 Q3036.3360000000002,1710 3028.3360000000002,1710 L2841.5200000000004,1710 Q2833.5200000000004,1710 2833.5200000000004,1718 L2833.5200000000004,1826" fill="none" stroke="var(--_line)" stroke-width="1.5" marker-end="url(#arrowhead)" />
<path d="M3036.3360000000002,1584.9999999999998 L3036.3360000000002,1702 Q3036.3360000000002,1710 3028.3360000000002,1710 L2598.768,1710 Q2590.768,1710 2590.768,1718 L2590.768,1826" fill="none" stroke="var(--_line)" stroke-width="1.5" marker-end="url(#arrowhead)" />
<path d="M3036.3360000000002,1584.9999999999998 L3036.3360000000002,1702 Q3036.3360000000002,1710 3028.3360000000002,1710 L2341.04,1710 Q2333.04,1710 2333.04,1718 L2333.04,1826" fill="none" stroke="var(--_line)" stroke-width="1.5" marker-end="url(#arrowhead)" />
<path d="M5205.332,585.4 L5205.332,652.4 Q5205.332,660.4 5197.332,660.4 L4485.744,660.4 Q4477.744,660.4 4477.744,668.4 L4477.744,877 Q4477.744,885 4485.744,885 L4550.360000000001,885" fill="none" stroke="var(--_line)" stroke-width="1.5" marker-end="url(#arrowhead)" marker-start="url(#arrowhead-start)" />
<path d="M4937.62,585.4 L4937.62,652.4 Q4937.62,660.4 4929.62,660.4 L4410.9439999999995,660.4 Q4402.9439999999995,660.4 4402.9439999999995,668.4 L4402.9439999999995,877 Q4402.9439999999995,885 4410.9439999999995,885 L4550.360000000001,885" fill="none" stroke="var(--_line)" stroke-width="1.5" marker-end="url(#arrowhead)" marker-start="url(#arrowhead-start)" />
<path d="M4754.772,585.4 L4754.772,652.4 Q4754.772,660.4 4746.772,660.4 L4226.78,660.4 Q4218.78,660.4 4218.78,668.4 L4218.78,877 Q4218.78,885 4210.78,885 L4021.1600000000003,885" fill="none" stroke="var(--_line)" stroke-width="1.5" marker-end="url(#arrowhead)" marker-start="url(#arrowhead-start)" />
<path d="M4285.76,918.6 L4285.76,935.6 Q4285.76,943.6 4293.76,943.6 L4442.184,943.6 Q4450.184,943.6 4450.184,951.6 L4450.184,1210.1999999999998 Q4450.184,1218.1999999999998 4442.184,1218.1999999999998 L550.0400000000004,1218.1999999999998" fill="none" stroke="var(--_line)" stroke-width="1.5" marker-end="url(#arrowhead)" />
<path d="M325.52000000000044,1184.6 L325.52000000000044,1167.6 Q325.52000000000044,1159.6 333.52000000000044,1159.6 L4058.796,1159.6 Q4066.796,1159.6 4066.796,1151.6 L4066.796,893 Q4066.796,885 4058.796,885 L4021.1600000000003,885" fill="none" stroke="var(--_line)" stroke-width="1.5" marker-end="url(#arrowhead)" />
<path d="M4285.76,918.6 L4285.76,1043.6 Q4285.76,1051.6 4277.76,1051.6 L4264.2,1051.6 Q4256.2,1051.6 4256.2,1059.6 L4256.2,1175.6" fill="none" stroke="var(--_line)" stroke-width="1.5" marker-end="url(#arrowhead)" />
<path d="M4256.2,1251.7999999999997 L4256.2,1268.8 Q4256.2,1276.8 4264.2,1276.8 L4443.4839999999995,1276.8 Q4451.4839999999995,1276.8 4451.4839999999995,1284.8 L4451.4839999999995,1543.3999999999999 Q4451.4839999999995,1551.3999999999999 4443.4839999999995,1551.3999999999999 L3333.9120000000003,1551.3999999999999" fill="none" stroke="var(--_line)" stroke-width="1.5" marker-end="url(#arrowhead)" />
<path d="M4256.2,1251.7999999999997 L4256.2,1268.8 Q4256.2,1276.8 4264.2,1276.8 L4386.884,1276.8 Q4394.884,1276.8 4394.884,1284.8 L4394.884,1543.3999999999999 Q4394.884,1551.3999999999999 4402.884,1551.3999999999999 L4931.192000000001,1551.3999999999999" fill="none" stroke="var(--_line)" stroke-width="1.5" marker-end="url(#arrowhead)" />
<path d="M4256.2,1251.7999999999997 L4256.2,1268.8 Q4256.2,1276.8 4248.2,1276.8 L4234.6,1276.8 Q4226.6,1276.8 4226.6,1284.8 L4226.6,1543.3999999999999 Q4226.6,1551.3999999999999 4234.6,1551.3999999999999 L4723.384,1551.3999999999999" fill="none" stroke="var(--_line)" stroke-width="1.5" marker-end="url(#arrowhead)" />
<path d="M4256.2,1251.7999999999997 L4256.2,1268.8 Q4256.2,1276.8 4248.2,1276.8 L4170.2,1276.8 Q4162.2,1276.8 4162.2,1284.8 L4162.2,1543.3999999999999 Q4162.2,1551.3999999999999 4170.2,1551.3999999999999 L4396.808,1551.3999999999999" fill="none" stroke="var(--_line)" stroke-width="1.5" marker-end="url(#arrowhead)" />
<path d="M4285.76,851.4 L4285.76,834.4 Q4285.76,826.4 4277.76,826.4 L4118.696,826.4 Q4110.696,826.4 4110.696,818.4 L4110.696,226.6 Q4110.696,218.6 4102.696,218.6 L3943.4119999999994,218.6" fill="none" stroke="var(--_line)" stroke-width="1.5" marker-end="url(#arrowhead)" />
<path d="M4227.98,252.2 L4227.98,269.2 Q4227.98,277.2 4235.98,277.2 L4425.064,277.2 Q4433.064,277.2 4433.064,285.2 L4433.064,543.8 Q4433.064,551.8 4441.064,551.8 L5042.54,551.8" fill="none" stroke="var(--_line)" stroke-width="1.5" marker-end="url(#arrowhead)" />
<path d="M4227.98,252.2 L4227.98,269.2 Q4227.98,277.2 4235.98,277.2 L4360.664,277.2 Q4368.664,277.2 4368.664,285.2 L4368.664,543.8 Q4368.664,551.8 4376.664,551.8 L4854.7,551.8" fill="none" stroke="var(--_line)" stroke-width="1.5" marker-end="url(#arrowhead)" />
<path d="M4227.98,252.2 L4227.98,543.8 Q4227.98,551.8 4235.98,551.8 L4676.844,551.8" fill="none" stroke="var(--_line)" stroke-width="1.5" marker-end="url(#arrowhead)" />
<path d="M325.52000000000044,1184.6 L325.52000000000044,1167.6 Q325.52000000000044,1159.6 333.52000000000044,1159.6 L3918.0959999999995,1159.6 Q3926.0959999999995,1159.6 3926.0959999999995,1151.6 L3926.0959999999995,222.7579999999999 Q3926.0959999999995,218.6 3930.2539999999995,218.6 L3934.4119999999994,218.6" fill="none" stroke="var(--_line)" stroke-width="1.5" marker-end="url(#arrowhead)" />
<rect x="72" y="92" width="250.784" height="24" fill="var(--bg)" rx="2" ry="2" />
<text x="80" y="104" dy="0.35em" style="font-family:'Geist Mono',system-ui,sans-serif;font-size:16px;font-weight:600;text-transform:uppercase;" fill="rgba(255,255,255,0.92)">&quot;RuntimeApp&quot;</text>
<rect x="3830.5919999999996" y="132" width="282.79999999999995" height="24" fill="var(--bg)" rx="2" ry="2" />
<text x="3838.5919999999996" y="144" dy="0.35em" style="font-family:'Geist Mono',system-ui,sans-serif;font-size:16px;font-weight:600;text-transform:uppercase;" fill="rgba(255,255,255,0.92)">&quot;Core Services&quot;</text>
<rect x="2196.16" y="1464.8" width="293.4719999999999" height="24" fill="var(--bg)" rx="2" ry="2" />
<text x="2204.16" y="1476.8" dy="0.35em" style="font-family:'Geist Mono',system-ui,sans-serif;font-size:16px;font-weight:600;text-transform:uppercase;" fill="rgba(255,255,255,0.92)">&quot;Agent Backends&quot;</text>
<rect x="558.0159999999996" y="1464.8000000000002" width="293.4719999999999" height="24" fill="var(--bg)" rx="2" ry="2" />
<text x="566.0159999999996" y="1476.8000000000002" dy="0.35em" style="font-family:'Geist Mono',system-ui,sans-serif;font-size:16px;font-weight:600;text-transform:uppercase;" fill="rgba(255,255,255,0.92)">&quot;Infrastructure&quot;</text>
<rect x="4647.844" y="440.19999999999993" width="314.816" height="24" fill="var(--bg)" rx="2" ry="2" />
<text x="4655.844" y="452.19999999999993" dy="0.35em" style="font-family:'Geist Mono',system-ui,sans-serif;font-size:16px;font-weight:600;text-transform:uppercase;" fill="rgba(255,255,255,0.92)">&quot;Channel Adapters&quot;</text>
<rect x="4694.384" y="1439.8000000000002" width="282.79999999999995" height="24" fill="var(--bg)" rx="2" ry="2" />
<text x="4702.384" y="1451.8000000000002" dy="0.35em" style="font-family:'Geist Mono',system-ui,sans-serif;font-size:16px;font-weight:600;text-transform:uppercase;" fill="rgba(255,255,255,0.92)">&quot;API Providers&quot;</text>
<rect x="4446.344" y="705.4" width="62.800000000000004" height="26" rx="4" ry="4" fill="var(--bg)" stroke="var(--_inner-stroke)" stroke-width="0.5" />
<text x="4477.744" y="718.4" text-anchor="middle" dy="0.35em" font-size="10" font-weight="400" fill="var(--_text-muted)">read/send</text>
<rect x="4371.544" y="705.4" width="62.800000000000004" height="26" rx="4" ry="4" fill="var(--bg)" stroke="var(--_inner-stroke)" stroke-width="0.5" />
<text x="4402.9439999999995" y="718.4" text-anchor="middle" dy="0.35em" font-size="10" font-weight="400" fill="var(--_text-muted)">read/send</text>
<rect x="4187.38" y="705.4" width="62.800000000000004" height="26" rx="4" ry="4" fill="var(--bg)" stroke="var(--_inner-stroke)" stroke-width="0.5" />
<text x="4218.78" y="718.4" text-anchor="middle" dy="0.35em" font-size="10" font-weight="400" fill="var(--_text-muted)">read/send</text>
<rect x="4403.184" y="1038.6" width="94" height="26" rx="4" ry="4" fill="var(--bg)" stroke="var(--_inner-stroke)" stroke-width="0.5" />
<text x="4450.184" y="1051.6" text-anchor="middle" dy="0.35em" font-size="10" font-weight="400" fill="var(--_text-muted)">publish_inbound</text>
<rect x="4019.796" y="1038.6" width="94" height="26" rx="4" ry="4" fill="var(--bg)" stroke="var(--_inner-stroke)" stroke-width="0.5" />
<text x="4066.796" y="1051.6" text-anchor="middle" dy="0.35em" font-size="10" font-weight="400" fill="var(--_text-muted)">consume_inbound</text>
<rect x="4230" y="1038.6" width="52.4" height="26" rx="4" ry="4" fill="var(--bg)" stroke="var(--_inner-stroke)" stroke-width="0.5" />
<text x="4256.2" y="1051.6" text-anchor="middle" dy="0.35em" font-size="10" font-weight="400" fill="var(--_text-muted)">execute</text>
<rect x="4435.683999999999" y="1371.8" width="31.6" height="26" rx="4" ry="4" fill="var(--bg)" stroke="var(--_inner-stroke)" stroke-width="0.5" />
<text x="4451.4839999999995" y="1384.8" text-anchor="middle" dy="0.35em" font-size="10" font-weight="400" fill="var(--_text-muted)">run</text>
<rect x="4366.084" y="1371.8" width="57.6" height="26" rx="4" ry="4" fill="var(--bg)" stroke="var(--_inner-stroke)" stroke-width="0.5" />
<text x="4394.884" y="1384.8" text-anchor="middle" dy="0.35em" font-size="10" font-weight="400" fill="var(--_text-muted)">classify</text>
<rect x="4208.200000000001" y="1371.8" width="36.8" height="26" rx="4" ry="4" fill="var(--bg)" stroke="var(--_inner-stroke)" stroke-width="0.5" />
<text x="4226.6" y="1384.8" text-anchor="middle" dy="0.35em" font-size="10" font-weight="400" fill="var(--_text-muted)">chat</text>
<rect x="4128.2" y="1371.8" width="68" height="26" rx="4" ry="4" fill="var(--bg)" stroke="var(--_inner-stroke)" stroke-width="0.5" />
<text x="4162.2" y="1384.8" text-anchor="middle" dy="0.35em" font-size="10" font-weight="400" fill="var(--_text-muted)">tool calls</text>
<rect x="4076.696" y="538.8" width="68" height="26" rx="4" ry="4" fill="var(--bg)" stroke="var(--_inner-stroke)" stroke-width="0.5" />
<text x="4110.696" y="551.8" text-anchor="middle" dy="0.35em" font-size="10" font-weight="400" fill="var(--_text-muted)">send reply</text>
<rect x="4406.8640000000005" y="372.2" width="52.4" height="26" rx="4" ry="4" fill="var(--bg)" stroke="var(--_inner-stroke)" stroke-width="0.5" />
<text x="4433.064" y="385.2" text-anchor="middle" dy="0.35em" font-size="10" font-weight="400" fill="var(--_text-muted)">deliver</text>
<rect x="4342.464" y="372.2" width="52.4" height="26" rx="4" ry="4" fill="var(--bg)" stroke="var(--_inner-stroke)" stroke-width="0.5" />
<text x="4368.664" y="385.2" text-anchor="middle" dy="0.35em" font-size="10" font-weight="400" fill="var(--_text-muted)">deliver</text>
<rect x="4201.78" y="372.2" width="52.4" height="26" rx="4" ry="4" fill="var(--bg)" stroke="var(--_inner-stroke)" stroke-width="0.5" />
<text x="4227.98" y="385.2" text-anchor="middle" dy="0.35em" font-size="10" font-weight="400" fill="var(--_text-muted)">deliver</text>
<rect x="3876.4959999999996" y="705.4" width="99.2" height="26" rx="4" ry="4" fill="var(--bg)" stroke="var(--_inner-stroke)" stroke-width="0.5" />
<text x="3926.0959999999995" y="718.4" text-anchor="middle" dy="0.35em" font-size="10" font-weight="400" fill="var(--_text-muted)">consume_outbound</text>
<rect x="581.0400000000003" y="1184.6" width="207.744" height="67.2" rx="6" ry="6" fill="var(--_node-fill)" stroke="var(--_node-stroke)" stroke-width="0.75" />
<rect x="110.00000000000043" y="1184.6" width="431.04" height="67.2" rx="33.6" ry="33.6" fill="var(--_node-fill)" stroke="var(--_node-stroke)" stroke-width="0.75" />
<rect x="3868.5919999999996" y="1517.8" width="537.216" height="67.2" rx="6" ry="6" fill="var(--_node-fill)" stroke="var(--_node-stroke)" stroke-width="0.75" />
<rect x="4012.1600000000003" y="851.4" width="547.2" height="67.2" rx="6" ry="6" fill="var(--_node-fill)" stroke="var(--_node-stroke)" stroke-width="0.75" />
<rect x="3934.4119999999994" y="185" width="587.136" height="67.2" rx="6" ry="6" fill="var(--_node-fill)" stroke="var(--_node-stroke)" stroke-width="0.75" />
<rect x="3932.68" y="1184.6" width="647.04" height="67.2" rx="6" ry="6" fill="var(--_node-fill)" stroke="var(--_node-stroke)" stroke-width="0.75" />
<rect x="2747.76" y="1517.8" width="577.1519999999999" height="67.2" rx="6" ry="6" fill="var(--_node-fill)" stroke="var(--_node-stroke)" stroke-width="0.75" />
<rect x="3620.784" y="1835" width="167.808" height="67.2" rx="6" ry="6" fill="var(--_node-fill)" stroke="var(--_node-stroke)" stroke-width="0.75" />
<rect x="3412.976" y="1835" width="167.808" height="67.2" rx="6" ry="6" fill="var(--_node-fill)" stroke="var(--_node-stroke)" stroke-width="0.75" />
<rect x="3155.248" y="1835" width="217.72799999999998" height="67.2" rx="6" ry="6" fill="var(--_node-fill)" stroke="var(--_node-stroke)" stroke-width="0.75" />
<rect x="2957.4240000000004" y="1835" width="157.824" height="67.2" rx="6" ry="6" fill="var(--_node-fill)" stroke="var(--_node-stroke)" stroke-width="0.75" />
<rect x="2749.6160000000004" y="1835" width="167.808" height="67.2" rx="6" ry="6" fill="var(--_node-fill)" stroke="var(--_node-stroke)" stroke-width="0.75" />
<rect x="2471.92" y="1835" width="237.69600000000003" height="67.2" rx="6" ry="6" fill="var(--_node-fill)" stroke="var(--_node-stroke)" stroke-width="0.75" />
<rect x="2234.16" y="1835" width="197.76" height="67.2" rx="6" ry="6" fill="var(--_node-fill)" stroke="var(--_node-stroke)" stroke-width="0.75" />
<rect x="596.0160000000003" y="1517.8" width="177.792" height="67.2" rx="6" ry="6" fill="var(--_node-fill)" stroke="var(--_node-stroke)" stroke-width="0.75" />
<rect x="813.8079999999998" y="1517.8" width="227.712" height="67.2" rx="6" ry="6" fill="var(--_node-fill)" stroke="var(--_node-stroke)" stroke-width="0.75" />
<rect x="1081.5200000000004" y="1517.8" width="237.69600000000003" height="67.2" rx="6" ry="6" fill="var(--_node-fill)" stroke="var(--_node-stroke)" stroke-width="0.75" />
<rect x="1359.216" y="1517.8" width="527.232" height="67.2" rx="6" ry="6" fill="var(--_node-fill)" stroke="var(--_node-stroke)" stroke-width="0.75" />
<rect x="1926.448" y="1517.8" width="227.712" height="67.2" rx="6" ry="6" fill="var(--_node-fill)" stroke="var(--_node-stroke)" stroke-width="0.75" />
<rect x="5051.54" y="518.2" width="307.584" height="67.2" rx="6" ry="6" fill="var(--_node-fill)" stroke="var(--_node-stroke)" stroke-width="0.75" />
<rect x="4863.7" y="518.2" width="147.84" height="67.2" rx="6" ry="6" fill="var(--_node-fill)" stroke="var(--_node-stroke)" stroke-width="0.75" />
<rect x="4685.844" y="518.2" width="137.856" height="67.2" rx="6" ry="6" fill="var(--_node-fill)" stroke="var(--_node-stroke)" stroke-width="0.75" />
<rect x="4732.384" y="1517.8" width="167.808" height="67.2" rx="6" ry="6" fill="var(--_node-fill)" stroke="var(--_node-stroke)" stroke-width="0.75" />
<rect x="4940.192000000001" y="1517.8" width="417.408" height="67.2" rx="6" ry="6" fill="var(--_node-fill)" stroke="var(--_node-stroke)" stroke-width="0.75" />
<text x="684.9120000000003" y="1218.1999999999998" text-anchor="middle" dy="0.35em" font-size="19.2" font-weight="400" letter-spacing="-0.384" fill="var(--_text)">&quot;ServiceManager&quot;</text>
<text x="325.52000000000044" y="1218.1999999999998" text-anchor="middle" dy="0.35em" font-size="19.2" font-weight="400" letter-spacing="-0.384" fill="var(--_text)">&quot;MessageBus&lt;br/&gt;inbound ↔ outbound&quot;</text>
<text x="4137.2" y="1551.3999999999999" text-anchor="middle" dy="0.35em" font-size="19.2" font-weight="400" letter-spacing="-0.384" fill="var(--_text)">&quot;AgentDomain&lt;br/&gt;tools · skills · memory · tasks&quot;</text>
<text x="4285.76" y="885" text-anchor="middle" dy="0.35em" font-size="19.2" font-weight="400" letter-spacing="-0.384" fill="var(--_text)">&quot;ChannelManager&lt;br/&gt;polling · routing · streaming&quot;</text>
<text x="4227.98" y="218.6" text-anchor="middle" dy="0.35em" font-size="19.2" font-weight="400" letter-spacing="-0.384" fill="var(--_text)">&quot;DispatchService&lt;br/&gt;retry · DLQ · dedup · rate-limit&quot;</text>
<text x="4256.2" y="1218.1999999999998" text-anchor="middle" dy="0.35em" font-size="19.2" font-weight="400" letter-spacing="-0.384" fill="var(--_text)">&quot;OrchestrationService&lt;br/&gt;once · agent · task · phase modes&quot;</text>
<text x="3036.3360000000002" y="1551.3999999999999" text-anchor="middle" dy="0.35em" font-size="19.2" font-weight="400" letter-spacing="-0.384" fill="var(--_text)">&quot;AgentBackendRegistry&lt;br/&gt;circuit breaker · fallback&quot;</text>
<text x="3704.688" y="1868.6" text-anchor="middle" dy="0.35em" font-size="19.2" font-weight="400" letter-spacing="-0.384" fill="var(--_text)">&quot;claude_sdk&quot;</text>
<text x="3496.88" y="1868.6" text-anchor="middle" dy="0.35em" font-size="19.2" font-weight="400" letter-spacing="-0.384" fill="var(--_text)">&quot;claude_cli&quot;</text>
<text x="3264.112" y="1868.6" text-anchor="middle" dy="0.35em" font-size="19.2" font-weight="400" letter-spacing="-0.384" fill="var(--_text)">&quot;codex_appserver&quot;</text>
<text x="3036.3360000000002" y="1868.6" text-anchor="middle" dy="0.35em" font-size="19.2" font-weight="400" letter-spacing="-0.384" fill="var(--_text)">&quot;codex_cli&quot;</text>
<text x="2833.5200000000004" y="1868.6" text-anchor="middle" dy="0.35em" font-size="19.2" font-weight="400" letter-spacing="-0.384" fill="var(--_text)">&quot;gemini_cli&quot;</text>
<text x="2590.768" y="1868.6" text-anchor="middle" dy="0.35em" font-size="19.2" font-weight="400" letter-spacing="-0.384" fill="var(--_text)">&quot;openai_compatible&quot;</text>
<text x="2333.04" y="1868.6" text-anchor="middle" dy="0.35em" font-size="19.2" font-weight="400" letter-spacing="-0.384" fill="var(--_text)">&quot;container_cli&quot;</text>
<text x="684.9120000000003" y="1551.3999999999999" text-anchor="middle" dy="0.35em" font-size="19.2" font-weight="400" letter-spacing="-0.384" fill="var(--_text)">&quot;CronService&quot;</text>
<text x="927.6639999999998" y="1551.3999999999999" text-anchor="middle" dy="0.35em" font-size="19.2" font-weight="400" letter-spacing="-0.384" fill="var(--_text)">&quot;HeartbeatService&quot;</text>
<text x="1200.3680000000004" y="1551.3999999999999" text-anchor="middle" dy="0.35em" font-size="19.2" font-weight="400" letter-spacing="-0.384" fill="var(--_text)">&quot;OpsRuntimeService&quot;</text>
<text x="1622.8319999999999" y="1551.3999999999999" text-anchor="middle" dy="0.35em" font-size="19.2" font-weight="400" letter-spacing="-0.384" fill="var(--_text)">&quot;DashboardService&lt;br/&gt;API · SSE · inline assets&quot;</text>
<text x="2040.304" y="1551.3999999999999" text-anchor="middle" dy="0.35em" font-size="19.2" font-weight="400" letter-spacing="-0.384" fill="var(--_text)">&quot;McpClientManager&quot;</text>
<text x="5205.332" y="551.8000000000001" text-anchor="middle" dy="0.35em" font-size="19.2" font-weight="400" letter-spacing="-0.384" fill="var(--_text)">&quot;Slack&lt;br/&gt;@slack/web-api&quot;</text>
<text x="4937.62" y="551.8000000000001" text-anchor="middle" dy="0.35em" font-size="19.2" font-weight="400" letter-spacing="-0.384" fill="var(--_text)">&quot;Telegram&quot;</text>
<text x="4754.772" y="551.8000000000001" text-anchor="middle" dy="0.35em" font-size="19.2" font-weight="400" letter-spacing="-0.384" fill="var(--_text)">&quot;Discord&quot;</text>
<text x="4816.2880000000005" y="1551.3999999999999" text-anchor="middle" dy="0.35em" font-size="19.2" font-weight="400" letter-spacing="-0.384" fill="var(--_text)">&quot;OpenRouter&quot;</text>
<text x="5148.896000000001" y="1551.3999999999999" text-anchor="middle" dy="0.35em" font-size="19.2" font-weight="400" letter-spacing="-0.384" fill="var(--_text)">&quot;Orchestrator LLM&lt;br/&gt;Ollama runtime&quot;</text>
</svg>